<?xml version="1.0" encoding="utf-8"?>
<!-- Generator: Adobe Illustrator 19.1.0, SVG Export Plug-In . SVG Version: 6.00 Build 0)  -->
<svg version="1.1" id="Réteg_1" xmlns="http://www.w3.org/2000/svg" xmlns:xlink="http://www.w3.org/1999/xlink" x="0px" y="0px"
	 viewBox="10 -10 64 64" style="enable-background:new 10 -10 64 64;" xml:space="preserve">
<style type="text/css">
	.st0{fill:#FF9900;}
</style>
<g>
	<g>
		<g id="group-3svg">
			<path id="path-1_21_" class="st0" d="M56.3,13.6c0,2-1.6,3.7-3.7,3.7c-2,0-3.7-1.7-3.7-3.7s1.7-3.7,3.7-3.7
				C54.6,9.9,56.3,11.6,56.3,13.6z"/>
			<path id="path-2_21_" class="st0" d="M35.1,13.6c0,2-1.7,3.7-3.7,3.7s-3.7-1.7-3.7-3.7s1.7-3.7,3.7-3.7S35.1,11.6,35.1,13.6z"/>
			<path id="path-3_21_" class="st0" d="M55.2,27.8c0.8,0,1.5,0.7,1.5,1.5c0,6.6-5.3,11.9-11.8,11.9h-5.1c-6.5,0-11.8-5.3-11.8-11.8
				c0-0.8,0.7-1.5,1.5-1.5s1.5,0.7,1.5,1.5c0,4.8,3.9,8.8,8.7,8.8l5.3,0c4.8,0,8.7-4,8.7-8.9C53.7,28.5,54.4,27.8,55.2,27.8z"/>
			<path id="path-4_21_" class="st0" d="M42,54c-17.6,0-32-14.4-32-32s14.4-32,32-32S74,4.4,74,22S59.7,54,42,54z M42-7
				C26-7,13,6,13,22s13,29,29,29s29-13,29-29S58-7,42-7z"/>
		</g>
	</g>
</g>
</svg>
