<?xml version="1.0" encoding="utf-8"?>
<!-- Generator: Adobe Illustrator 21.1.0, SVG Export Plug-In . SVG Version: 6.00 Build 0)  -->
<svg version="1.1" id="Réteg_1" xmlns="http://www.w3.org/2000/svg" xmlns:xlink="http://www.w3.org/1999/xlink" x="0px" y="0px"
	 viewBox="0 0 64 64" style="enable-background:new 0 0 64 64;" xml:space="preserve">
<style type="text/css">
	.st0{fill:#FF9900;}
</style>
<g>
	<polygon class="st0" points="33.1,42.8 38.9,27.6 26.2,27.6 	"/>
	<path class="st0" d="M32,0C14.3,0,0,14.3,0,32s14.3,32,32,32s32-14.3,32-32S49.7,0,32,0z M50.7,14.2L36.2,52c-0.4,1.2-1.6,2-2.8,2
		c0,0-0.1,0-0.1,0c-1.2,0-2.3-0.7-2.8-1.8L13.4,14.4c-0.7-1.6,0-3.4,1.6-4.1s3.4,0,4.1,1.6l4.3,9.6h17.9l3.6-9.4
		c0.6-1.6,2.4-2.4,4-1.8C50.5,10.8,51.3,12.6,50.7,14.2z"/>
</g>
</svg>
