<?xml version="1.0" encoding="utf-8"?>
<!-- Generator: Adobe Illustrator 19.1.0, SVG Export Plug-In . SVG Version: 6.00 Build 0)  -->
<svg version="1.1" id="Capa_1" xmlns="http://www.w3.org/2000/svg" xmlns:xlink="http://www.w3.org/1999/xlink" x="0px" y="0px"
	 viewBox="-65 189.1 463.8 463.8" style="enable-background:new -65 189.1 463.8 463.8;" xml:space="preserve">
<style type="text/css">
	.st0{fill:#FF9900;}
</style>
<g>
	<path class="st0" d="M98.2,276.2c-12.7,0-16.6,15.8-19.5,31.9c-2.6,14.6-4.7,34-6.8,52.8c-1.8,16.5-4.2,38.5-6.9,53.4
		c-2.2-10.6-4.1-24.6-5.6-35.3c-2-14.3-4-29.1-6.6-40.3c-1.9-8.3-6-25.7-19.3-25.7c-12.6,0-17.5,14.7-19.1,19.5
		c-2.7,8.2-4.8,18.8-6.9,29.1c-1.7,8.6-4.3,21.6-6.9,28.9c-1.7-3.8-3.4-9.1-4.5-12.5c-4.4-13.7-9-27.8-22.1-27.8h-39v20h36.8
		c1.7,2.9,3.9,9.7,5.3,14c4.6,14.1,9.7,30,24.1,30c12.6,0,17.5-14.7,19.1-19.5c2.7-8.2,4.8-18.8,6.9-29.1c1.4-7.2,3.5-17.4,5.6-24.8
		c2.7,10.9,5.1,28.2,6.8,41c2,14.3,4,29.1,6.6,40.3c1.9,8.3,6,25.7,19.3,25.7c12.7,0,16.6-15.8,19.5-31.9c2.6-14.6,4.7-34,6.8-52.8
		c1.8-16.4,4.2-38.4,6.9-53.3c2.2,11,4.2,25.6,5.8,36.8c1.5,11,2.9,20.9,4.3,29.5c1.7-15.3,6.5-30,14-43.2
		C117.8,297.2,113.5,276.2,98.2,276.2z"/>
	<path class="st0" d="M204.6,378.8c-3.4,8.6-5.6,19.3-7.5,28.7c-0.3,1.5-0.7,3.2-1,4.9c-2.3-8.9-4.4-20.3-5.9-28.5
		c-2.3-12.2-4.3-23.1-6.8-32c-7.6,7.9-12.5,17.9-14.2,28.6c0.5,2.5,0.9,4.9,1.3,7.1c6.1,32.9,10.6,56.7,26.9,56.7
		c10.1,0,13.7-10.7,14.8-14.3c1.6-5,3-11.5,4.4-18.4c1.6-7.8,3.3-15.9,5.5-22.5c2.4-7.2,4.4-9.4,5-9.9h35.7v-20h-36.1
		C217.2,359.2,209.7,365.8,204.6,378.8z"/>
	<path class="st0" d="M391,520.4l-68.7-68.7c-5.1-5.1-11.7-7.7-18.4-7.8c25.8-38.4,21.7-91-12.2-124.9
		c-38.5-38.5-101.2-38.5-139.7,0c-38.5,38.5-38.5,101.2,0,139.8c33.9,33.9,86.5,38,124.9,12.2c0.1,6.7,2.7,13.3,7.8,18.4l68.7,68.7
		c10.4,10.4,27.2,10.4,37.6,0S401.4,530.8,391,520.4z M270.2,437.2c-26.7,26.7-70.1,26.7-96.8,0c-26.7-26.7-26.7-70.1,0-96.8
		s70.1-26.7,96.8,0C296.9,367.2,296.9,410.6,270.2,437.2z"/>
</g>
</svg>
