<?xml version="1.0" encoding="utf-8"?>
<!-- Generator: Adobe Illustrator 19.1.0, SVG Export Plug-In . SVG Version: 6.00 Build 0)  -->
<svg version="1.1" id="Réteg_1" xmlns="http://www.w3.org/2000/svg" xmlns:xlink="http://www.w3.org/1999/xlink" x="0px" y="0px"
	 viewBox="10 -10 64 64" style="enable-background:new 10 -10 64 64;" xml:space="preserve">
<style type="text/css">
	.st0{fill:#FF9900;}
</style>
<g>
	<path class="st0" d="M42-10C24.3-10,10,4.3,10,22s14.3,32,32,32s32-14.3,32-32S59.7-10,42-10z M35.9,3.6c1.7-1.7,3.6-2.5,6-2.5
		c2.4,0,4.4,0.8,6,2.5c1.7,1.7,2.5,3.6,2.5,6h-17C33.5,7.3,34.3,5.3,35.9,3.6z M62.8,26.3c-0.3,0.3-0.7,0.5-1.2,0.5h-5.9
		c0,3-0.6,5.6-1.8,7.7l5.6,5.6c0.3,0.3,0.5,0.7,0.5,1.2c0,0.5-0.2,0.9-0.5,1.2c-0.3,0.3-0.7,0.5-1.2,0.5c-0.5,0-0.9-0.2-1.2-0.5
		l-5.3-5.2c-0.1,0.1-0.2,0.2-0.4,0.3c-0.2,0.2-0.6,0.4-1.1,0.8c-0.6,0.3-1.2,0.6-1.7,1c-0.6,0.3-1.3,0.6-2.2,0.8s-1.7,0.3-2.6,0.3
		V16.4h-3.4v23.9c-0.9,0-1.8-0.2-2.7-0.4s-1.7-0.6-2.3-0.9c-0.6-0.3-1.2-0.7-1.7-1c-0.6-0.3-1-0.6-1.2-0.9l-0.4-0.4l-4.8,5.6
		c-0.3,0.4-0.8,0.6-1.3,0.6c-0.4,0-0.8-0.1-1.1-0.4c-0.3-0.3-0.6-0.7-0.6-1.2c-0.1-0.5,0.1-1,0.4-1.3l5.3-6.1c-1-2-1.5-4.4-1.5-7.3
		h-5.9c-0.5,0-0.9-0.2-1.2-0.5c-0.3-0.3-0.5-0.7-0.5-1.2c0-0.5,0.2-0.9,0.5-1.2c0.3-0.3,0.7-0.5,1.2-0.5h5.9v-7.8l-4.6-4.6
		c-0.3-0.3-0.5-0.7-0.5-1.2c0-0.5,0.2-0.9,0.5-1.2C24,8.1,24.4,8,24.9,8c0.5,0,0.9,0.2,1.2,0.5l4.6,4.7h22.5l4.6-4.6
		C58.1,8.2,58.5,8,59,8c0.5,0,0.9,0.2,1.2,0.5c0.3,0.3,0.5,0.7,0.5,1.2c0,0.5-0.2,0.9-0.5,1.2l-4.6,4.6v7.8h5.9
		c0.5,0,0.9,0.2,1.2,0.5c0.4,0.3,0.6,0.7,0.6,1.3C63.3,25.6,63.1,26,62.8,26.3z"/>
</g>
</svg>
