<?xml version="1.0" encoding="utf-8"?>
<!-- Generator: Adobe Illustrator 19.1.0, SVG Export Plug-In . SVG Version: 6.00 Build 0)  -->
<svg version="1.1" id="Réteg_1" xmlns="http://www.w3.org/2000/svg" xmlns:xlink="http://www.w3.org/1999/xlink" x="0px" y="0px"
	 viewBox="10 -10 64 64" style="enable-background:new 10 -10 64 64;" xml:space="preserve">
<style type="text/css">
	.st0{fill:#FF9900;}
</style>
<g>
	<path class="st0" d="M42-10C24.3-10,10,4.3,10,22s14.3,32,32,32s32-14.3,32-32S59.7-10,42-10z M40.4-3.8c0-0.6,0.2-1,0.5-1.4
		c0.3-0.4,0.7-0.5,1.1-0.5c0.5,0,0.9,0.2,1.2,0.5c0.3,0.4,0.5,0.8,0.5,1.4v5c0,0.6-0.2,1-0.5,1.4C42.9,3,42.5,3.1,42,3.1
		c-0.4,0-0.8-0.2-1.1-0.5c-0.3-0.4-0.5-0.8-0.5-1.4V-3.8z M17.8,9.1c0.2-0.4,0.5-0.7,1-0.9c0.5-0.1,0.9-0.1,1.5,0.1l4.5,2.1
		c0.5,0.2,0.8,0.5,1,1c0.2,0.4,0.2,0.9,0,1.3c-0.2,0.4-0.5,0.7-1,0.9c-0.5,0.1-1,0.1-1.4-0.1l-4.6-2.1c-0.5-0.2-0.8-0.5-1-1
		C17.6,10,17.6,9.5,17.8,9.1z M25.9,24.2c-0.3,0.4-0.8,0.6-1.3,0.7l-4.9,0.8c-0.5,0.1-1,0-1.4-0.3c-0.4-0.3-0.7-0.6-0.7-1.1
		c-0.1-0.4,0-0.8,0.4-1.2c0.3-0.4,0.8-0.6,1.3-0.7l4.9-0.8c0.5-0.1,1,0,1.4,0.3c0.4,0.3,0.7,0.6,0.7,1
		C26.4,23.3,26.3,23.8,25.9,24.2z M26.6-1.1c0.1-0.5,0.3-0.9,0.7-1.1c0.4-0.2,0.8-0.3,1.3-0.1s0.9,0.4,1.1,0.9l2.8,4.1
		c0.3,0.4,0.4,0.9,0.4,1.4c-0.1,0.5-0.3,0.9-0.7,1.1c-0.4,0.2-0.8,0.3-1.3,0.1c-0.5-0.1-0.9-0.4-1.1-0.9L27,0.3
		C26.7-0.1,26.6-0.6,26.6-1.1z M48.7,48.8c0,0.3-0.1,0.5-0.3,0.7c-0.2,0.2-0.4,0.3-0.6,0.3H36.2c-0.6,0-1-0.3-1-1v-2
		c0-0.2,0.1-0.4,0.3-0.6s0.4-0.3,0.7-0.3h11.6c0.2,0,0.4,0.1,0.6,0.3c0.2,0.2,0.3,0.4,0.3,0.6V48.8z M48.7,43.1
		c0,0.2-0.1,0.4-0.3,0.6C48.2,43.9,48,44,47.8,44H36.2c-0.3,0-0.5-0.1-0.7-0.3s-0.3-0.4-0.3-0.6v-2c0-0.6,0.3-1,1-1h11.6
		c0.2,0,0.4,0.1,0.6,0.3c0.2,0.2,0.3,0.4,0.3,0.7V43.1z M55.3,17.4c0,0,0,0.1,0,0.2v0.2c0,0.7-0.1,1.5-0.3,2.4
		c-0.3,1.5-0.8,3.1-1.6,4.7c-0.8,1.6-1.6,3.3-2.5,5.2c-0.6,1.2-1,2.3-1.3,3.2c-0.2,1-0.4,1.8-0.6,2.5c-0.1,0.7-0.3,1.3-0.4,1.7
		c-0.2,0.4-0.5,0.7-0.9,0.7H36.3c-0.4-0.1-0.7-0.3-0.9-0.7c-0.2-0.4-0.3-1-0.4-1.7s-0.3-1.6-0.6-2.5c-0.2-1-0.7-2.1-1.3-3.2
		c-0.9-1.8-1.8-3.5-2.5-5.2c-0.7-1.7-1.3-3.2-1.6-4.7c-0.1-0.4-0.1-0.8-0.2-1.2l-0.1-1.2v-0.5c0-1.9,0.3-3.6,1-5
		c0.7-1.4,1.6-2.6,2.7-3.6c1.2-1,2.6-1.7,4.2-2.2C38.2,6,40,5.8,41.9,5.8H42h0.1c1.9,0,3.7,0.2,5.3,0.7c1.6,0.5,3,1.2,4.2,2.2
		c1.2,1,2.1,2.2,2.8,3.6c0.5,1.3,0.9,3,0.9,4.9C55.3,17.3,55.3,17.3,55.3,17.4z M57,0.2l-2.7,4.2c-0.4,0.5-0.7,0.8-1.2,0.9
		c-0.5,0.2-0.9,0.1-1.3-0.1c-0.4-0.2-0.6-0.6-0.7-1.1c0-0.5,0.1-1,0.4-1.4l2.6-4.2c0.4-0.5,0.7-0.8,1.2-0.9c0.5-0.2,0.9-0.1,1.3,0.1
		c0.4,0.2,0.6,0.6,0.7,1.1C57.4-0.7,57.3-0.2,57,0.2z M66.3,24.3c-0.1,0.5-0.3,0.8-0.7,1.1c-0.4,0.3-0.8,0.4-1.4,0.3l-4.9-0.8
		c-0.6-0.1-1-0.3-1.3-0.7c-0.3-0.4-0.4-0.9-0.3-1.3c0.1-0.4,0.3-0.7,0.7-1c0.4-0.3,0.8-0.4,1.4-0.3l4.8,0.8c0.6,0.1,1,0.3,1.3,0.7
		C66.3,23.5,66.4,23.9,66.3,24.3z M65.3,11.4l-4.6,2.1c-0.5,0.2-0.9,0.2-1.4,0.1c-0.5-0.2-0.8-0.5-1-0.9c-0.2-0.4-0.2-0.9,0-1.3
		c0.2-0.5,0.5-0.8,1-1L64,8.3c0.5-0.2,0.9-0.2,1.4-0.1c0.5,0.2,0.8,0.5,1,0.9c0.2,0.4,0.2,0.9,0,1.3C66.2,10.9,65.8,11.2,65.3,11.4z
		"/>
</g>
</svg>
