<?xml version="1.0" encoding="utf-8"?>
<!-- Generator: Adobe Illustrator 19.1.0, SVG Export Plug-In . SVG Version: 6.00 Build 0)  -->
<svg version="1.1" id="Réteg_1" xmlns="http://www.w3.org/2000/svg" xmlns:xlink="http://www.w3.org/1999/xlink" x="0px" y="0px"
	 viewBox="10 -10 64 64" style="enable-background:new 10 -10 64 64;" xml:space="preserve">
<style type="text/css">
	.st0{fill:#FF9900;}
</style>
<g>
	<path class="st0" d="M42-10C24.3-10,10,4.3,10,22s14.3,32,32,32s32-14.3,32-32S59.7-10,42-10z M48.7,48.8c0,0.3-0.1,0.5-0.3,0.7
		c-0.2,0.2-0.4,0.3-0.6,0.3H36.2c-0.6,0-1-0.3-1-1v-2c0-0.2,0.1-0.4,0.3-0.6s0.4-0.3,0.7-0.3h11.6c0.2,0,0.4,0.1,0.6,0.3
		c0.2,0.2,0.3,0.4,0.3,0.6V48.8z M48.7,43.1c0,0.2-0.1,0.4-0.3,0.6C48.2,43.9,48,44,47.8,44H36.2c-0.3,0-0.5-0.1-0.7-0.3
		s-0.3-0.4-0.3-0.6v-2c0-0.6,0.3-1,1-1h11.6c0.2,0,0.4,0.1,0.6,0.3c0.2,0.2,0.3,0.4,0.3,0.7V43.1z M55.3,17.4c0,0,0,0.1,0,0.2v0.2
		c0,0.7-0.1,1.5-0.3,2.4c-0.3,1.5-0.8,3.1-1.6,4.7c-0.8,1.6-1.6,3.3-2.5,5.2c-0.6,1.2-1,2.3-1.3,3.2c-0.2,1-0.4,1.8-0.6,2.5
		c-0.1,0.7-0.3,1.3-0.4,1.7c-0.2,0.4-0.5,0.7-0.9,0.7H36.3c-0.4-0.1-0.7-0.3-0.9-0.7c-0.2-0.4-0.3-1-0.4-1.7s-0.3-1.6-0.6-2.5
		c-0.2-1-0.7-2.1-1.3-3.2c-0.9-1.8-1.8-3.5-2.5-5.2c-0.7-1.7-1.3-3.2-1.6-4.7c-0.1-0.4-0.1-0.8-0.2-1.2l-0.1-1.2v-0.5
		c0-1.9,0.3-3.6,1-5c0.7-1.4,1.6-2.6,2.7-3.6c1.2-1,2.6-1.7,4.2-2.2C38.2,6,40,5.8,41.9,5.8H42h0.1c1.9,0,3.7,0.2,5.3,0.7
		c1.6,0.5,3,1.2,4.2,2.2c1.2,1,2.1,2.2,2.8,3.6c0.5,1.3,0.9,3,0.9,4.9C55.3,17.3,55.3,17.3,55.3,17.4z"/>
</g>
</svg>
