<?xml version="1.0" encoding="utf-8"?>
<!-- Generator: Adobe Illustrator 19.1.0, SVG Export Plug-In . SVG Version: 6.00 Build 0)  -->
<svg version="1.1" id="Réteg_1" xmlns="http://www.w3.org/2000/svg" xmlns:xlink="http://www.w3.org/1999/xlink" x="0px" y="0px"
	 viewBox="0 0 128 128" style="enable-background:new 0 0 128 128;" xml:space="preserve">
<style type="text/css">
	.st0{fill:#FF9900;}
</style>
<g>
	<g>
		<path class="st0" d="M106.7,21.3C95.3,9.9,80.1,3.7,64,3.7S32.7,9.9,21.3,21.3S3.7,47.9,3.7,64s6.3,31.3,17.7,42.7
			s26.5,17.7,42.7,17.7s31.3-6.3,42.7-17.7s17.7-26.5,17.7-42.7S118.1,32.7,106.7,21.3z M101.8,101.8
			c-10.1,10.1-23.5,15.7-37.8,15.7s-27.7-5.6-37.8-15.7C5.3,81,5.3,47,26.2,26.2C36.3,16.1,49.7,10.5,64,10.5s27.7,5.6,37.8,15.7
			C122.7,47,122.7,81,101.8,101.8z"/>
		<path class="st0" d="M90.6,37.4c-1.3-1.3-3.5-1.3-4.9,0L64,59.1L42.3,37.4c-1.3-1.3-3.5-1.3-4.9,0c-1.3,1.3-1.3,3.5,0,4.9L59.1,64
			L37.4,85.7c-1.3,1.3-1.3,3.5,0,4.9c0.7,0.7,1.5,1,2.4,1s1.8-0.3,2.4-1L64,68.9l21.7,21.7c0.7,0.7,1.5,1,2.4,1c0.9,0,1.8-0.3,2.4-1
			c1.3-1.3,1.3-3.5,0-4.9L68.9,64l21.7-21.7C91.9,40.9,91.9,38.8,90.6,37.4z"/>
	</g>
</g>
</svg>
