<?xml version="1.0" encoding="utf-8"?>
<!-- Generator: Adobe Illustrator 19.1.0, SVG Export Plug-In . SVG Version: 6.00 Build 0)  -->
<svg version="1.0" id="Réteg_1" xmlns="http://www.w3.org/2000/svg" xmlns:xlink="http://www.w3.org/1999/xlink" x="0px" y="0px"
	 viewBox="2 -2 64 64" style="enable-background:new 2 -2 64 64;" xml:space="preserve">
<style type="text/css">
	.st0{fill:#FF9900;}
</style>
<g>
	<g>
		<path class="st0" d="M32.6,0.7c2.2-0.5,4.5,0.3,6.4,1.5c5.7,3.3,11.5,6.6,17.2,10c3.2,1.5,4.7,5.2,4.3,8.6c0,6.6,0,13.2,0,19.8
			c0,2-0.6,3.9-1.9,5.4c-1,1.2-2.4,1.9-3.7,2.7c-5.6,3.3-11.3,6.5-16.9,9.8c-2.4,1.4-5.4,1.4-7.8,0c-6.2-3.6-12.3-7.1-18.5-10.7
			c-2.4-1.3-4-3.9-4-6.7c0-7.2,0-14.4,0-21.6c-0.1-2.8,1.4-5.6,3.8-7c6-3.5,12-6.9,18-10.4C30.3,1.5,31.4,0.9,32.6,0.7z M19.9,20.7
			c-2.8,4.2-3.5,9.6-2,14.4c1.1,3.6,3.5,6.8,6.6,8.9c4,2.8,9.2,3.7,13.8,2.4c4.3-1.1,8.1-4,10.4-7.9c-2.8-1.6-5.5-3.2-8.3-4.8
			c-1.4,2.2-3.8,3.7-6.4,3.6c-3.3,0.1-6.4-2.4-7.1-5.5c-1-3.6,1.1-7.7,4.7-8.9c3.3-1.2,7.2,0.3,8.9,3.4c2.8-1.6,5.5-3.2,8.3-4.9
			c-2.9-5.1-8.5-8.5-14.3-8.6C28.8,12.8,23.1,15.8,19.9,20.7z M47.6,27.1c0,0.6,0,1.3,0,1.9c-0.6,0-1.3,0-1.9,0c0,0.7,0,1.3,0,2
			c0.6,0,1.3,0,1.9,0c0,0.6,0,1.3,0,1.9c0.7,0,1.3,0,2,0c0-0.6,0-1.3,0-1.9c0.6,0,1.3,0,1.9,0c0-0.7,0-1.3,0-2c-0.6,0-1.3,0-1.9,0
			c0-0.6,0-1.3,0-1.9C48.9,27.1,48.2,27.1,47.6,27.1z M54.6,27.1c0,0.6,0,1.3,0,1.9c-0.6,0-1.3,0-1.9,0c0,0.7,0,1.3,0,2
			c0.6,0,1.3,0,1.9,0c0,0.6,0,1.3,0,1.9c0.7,0,1.3,0,2,0c0-0.6,0-1.3,0-1.9c0.6,0,1.3,0,1.9,0c0-0.7,0-1.3,0-2c-0.6,0-1.3,0-1.9,0
			c0-0.6,0-1.3,0-1.9C55.9,27.1,55.3,27.1,54.6,27.1z"/>
	</g>
</g>
</svg>
