<?xml version="1.0" encoding="utf-8"?>
<!-- Generator: Adobe Illustrator 19.1.0, SVG Export Plug-In . SVG Version: 6.00 Build 0)  -->
<svg version="1.1" id="Réteg_1" xmlns="http://www.w3.org/2000/svg" xmlns:xlink="http://www.w3.org/1999/xlink" x="0px" y="0px"
	 viewBox="-166 388.9 64 64" style="enable-background:new -166 388.9 64 64;" xml:space="preserve">
<style type="text/css">
	.st0{fill:#FF9900;}
</style>
<g>
	<path class="st0" d="M-160.2,428.9c1,7.6,6.2,14.4,14.3,18.7c0.4,0.2,0.8,0.4,1.1,0.6c2.4,1,10,1.6,12.8,1.7c0.1,0,0.3,0,0.4,0
		v-0.1c0.3,0,0.7,0.1,1,0.1v-6c-5.7,0-10.7-1.2-14.8-2.6c-1.2-1.1-2.2-2.3-3.1-3.5l1.5,0.7c4.2,1.8,9.8,3.4,16.4,3.4v-3
		c-7,0-12.8-1.7-17.2-3.6l-2.9-1.4c-0.4-0.9-0.7-1.8-1-2.7l4.7,2.3c4.2,1.8,9.8,3.4,16.4,3.4v-4c-10-0.1-17.7-3.5-21.8-5.8
		c0-0.8,0-1.5,0.1-2.3l0.5,0.3c3.7,2.2,11.2,5.7,21.2,5.8v-4c-3.7-0.2-6.6-3-6.6-6.5c0-1.7,0.7-3.3,2-4.5l1-1c0,0,0.1,0,0.1-0.8
		l-0.9,0.1c-4.8,0.6-9.8,1.9-14.6,4.1l-0.9,0.4c0.3-0.6,0.6-1.2,0.9-1.8c0.2-0.4,0.4-0.8,0.7-1.2c4.4-1.9,9-3.1,13.8-3.6l1.2-0.1
		l0.6-4h-0.8c-5,0.5-9,2.4-11.5,3.9l-1.9,1.1c0.6-1.1,1.1-2.2,1.7-3.3c3.6-2,7.6-3.3,11.6-3.7h1.2l0.6-4l-0.8,0.1
		c-3.3,0.3-6.5,1.1-9.6,2.5l-1,0.4c0.2-0.5,0.4-1,0.5-1.5c3.2-1.6,6.6-2.7,9.9-3.2l1.3-0.2l0.3-2.2c0-0.3,0.1-0.6,0.1-0.9l-1,0.1
		c-3.1,0.4-6.4,1.4-9.6,3l-0.5,0.3v-0.1c0-0.5,0-0.9,0.1-1.3c0.1-0.4,0.2-0.7,0.4-1c3.2-1.4,6.3-2.4,9.4-2.8l0.9-0.1
		c-0.2-0.6-0.5-1.2-0.9-1.7c-0.8-1-1.9-1.5-3.1-1.5c-0.6,0-1.7,0.1-1.7,0.1l-5.6-0.1l0,0c-3.4,0-5.9,2.3-7.1,6.5
		c-0.2,0.6-0.2,1.2-0.2,2c0.1,2.4-2.3,8.1-6.5,15.5C-159.8,420-160.8,424.6-160.2,428.9z M-155.8,416.9c3.2-5.6,7-13,6.8-16.6
		c0-0.5,0-0.9,0.1-1.3c0.7-2.3,2.1-5.1,5.2-5.1h1.5c-1.2,1.1-2.1,2.6-2.6,4.5c-0.2,0.6-0.2,1.2-0.2,2c0.1,2.4-2.3,8.1-6.5,15.5
		c-2.3,4.1-3.3,8.7-2.7,13c1,7.2,5.8,13.8,13.3,18.2c-1.4-0.2-2.5-0.4-3-0.7c-0.3-0.2-0.7-0.3-1-0.5c-7.5-4-12.3-10.3-13.3-17.2
		C-158.8,424.8-157.9,420.6-155.8,416.9z"/>
	<path class="st0" d="M-134.7,418.4c-0.4,0.6-0.6,1.3-0.6,2c0,2.5,2.2,4.5,5,4.5c2.8,0,5-2,5-4.5c0-0.7-0.2-1.4-0.6-2
		c-1.1,1.5-2.7,2.3-4.4,2.3C-132,420.7-133.6,419.8-134.7,418.4z"/>
	<path class="st0" d="M-128.6,438.9v3c4.6-0.2,9.7-1.2,15.2-3.4l2.8-1c0.6-1.1,1.2-2.2,1.6-3.4l-3.8,1.3
		C-118.4,437.7-123.8,438.7-128.6,438.9z"/>
	<path class="st0" d="M-125.4,414.1h-0.9c-0.1,0.8,0.1,0.8,0.1,0.8l1,1c1.3,1.2,2,2.8,2,4.5c0,3.1-2.3,5.6-5.4,6.3v4.1
		c5.8-0.2,12.4-1.7,19.5-5.3l1.4-0.6c-0.2-1.9-0.6-3.8-1.4-5.6l-2.7-1.5C-116,415.9-120.6,414.6-125.4,414.1z"/>
	<path class="st0" d="M-128.6,443.9v5.9c0.2,0,0.3,0,0.5-0.1c1.2-0.2,2.4-0.5,3.6-0.9c5-1.8,9.1-4.8,12-8.6l-0.3,0.1
		C-118.4,442.7-123.8,443.7-128.6,443.9z"/>
	<path class="st0" d="M-117.4,397.4l0.4,0.1c-1.3-3.5-4-5.6-7.2-5.6c-1.2,0-2.3,0.5-3.1,1.5c-0.4,0.5-0.7,1-0.9,1.5h0.8
		C-124,395.2-120.7,396-117.4,397.4z"/>
	<path class="st0" d="M-128.6,432.9v4c4.6-0.2,9.7-1.2,15.2-3.3l5.2-1.7c0.3-1.3,0.6-2.7,0.6-4.1c0-0.2,0-0.4,0-0.6l-0.5,0.3
		C-115.6,431.1-122.5,432.6-128.6,432.9z"/>
	<path class="st0" d="M-127.1,402.1l-0.8-0.1l0.6,4h1.2c4.3,0.5,8.6,1.9,12.4,4.1l0.3,0.2c-0.9-1.8-1.6-3.5-2.1-4.9l-2-0.8
		C-120.7,403.2-123.9,402.4-127.1,402.1z"/>
	<path class="st0" d="M-126.3,408.1h-0.8l0.6,4l1.2,0.1c5,0.5,9.9,1.8,14.4,3.9l0.3,0.2c-0.5-0.8-0.9-1.7-1.3-2.5l-3-1.8
		C-117.3,410.5-121.3,408.6-126.3,408.1z"/>
	<path class="st0" d="M-128.2,400l1.2,0.1c3.5,0.3,6.9,1.2,10.2,2.7l0.4,0.2c-0.2-0.8-0.3-1.5-0.2-2c0-0.4,0-0.7,0-1l-1.7-0.7
		c-3-1.3-6.2-2-9.3-2.2h-1c0,0.3,0,0.7,0.1,1L-128.2,400z"/>
</g>
</svg>
