<?xml version="1.0" encoding="utf-8"?>
<!-- Generator: Adobe Illustrator 19.1.0, SVG Export Plug-In . SVG Version: 6.00 Build 0)  -->
<svg version="1.1" id="Réteg_1" xmlns="http://www.w3.org/2000/svg" xmlns:xlink="http://www.w3.org/1999/xlink" x="0px" y="0px"
	 viewBox="10 -10 64 64" style="enable-background:new 10 -10 64 64;" xml:space="preserve">
<style type="text/css">
	.st0{fill:#FF9900;}
</style>
<g>
	<path class="st0" d="M17.4,21.2h23.8V-2.6H17.4V21.2z M24.2,7.6h3.4V4.2c0-0.9,0.8-1.7,1.7-1.7c0.9,0,1.7,0.8,1.7,1.7v3.4h3.4
		c0.9,0,1.7,0.8,1.7,1.7S35.3,11,34.4,11H31v3.4c0,0.9-0.8,1.7-1.7,1.7c-0.9,0-1.7-0.8-1.7-1.7V11h-3.4c-0.9,0-1.7-0.8-1.7-1.7
		S23.2,7.6,24.2,7.6z"/>
	<path class="st0" d="M42.8-2.6v23.8h23.8V-2.6H42.8z M59.8,11H49.6c-0.9,0-1.7-0.8-1.7-1.7s0.8-1.7,1.7-1.7h10.2
		c0.9,0,1.7,0.8,1.7,1.7S60.8,11,59.8,11z"/>
	<path class="st0" d="M42.8,46.6h23.8V22.8H42.8V46.6z M49.6,30.5h10.2c0.9,0,1.7,0.8,1.7,1.7c0,0.9-0.8,1.7-1.7,1.7H49.6
		c-0.9,0-1.7-0.8-1.7-1.7C47.9,31.3,48.7,30.5,49.6,30.5z M49.6,35.6h10.2c0.9,0,1.7,0.8,1.7,1.7c0,0.9-0.8,1.7-1.7,1.7H49.6
		c-0.9,0-1.7-0.8-1.7-1.7C47.9,36.3,48.7,35.6,49.6,35.6z"/>
	<path class="st0" d="M17.4,46.6h23.8V22.8H17.4V46.6z M23.8,31.7c-0.7-0.7-0.7-1.7,0-2.4c0.7-0.7,1.7-0.7,2.4,0l3,3l3-3
		c0.7-0.7,1.7-0.7,2.4,0c0.7,0.7,0.7,1.7,0,2.4l-3,3l3,3c0.7,0.7,0.7,1.7,0,2.4c-0.3,0.3-0.8,0.5-1.2,0.5s-0.9-0.2-1.2-0.5l-3-3
		l-3,3c-0.3,0.3-0.8,0.5-1.2,0.5c-0.4,0-0.9-0.2-1.2-0.5c-0.7-0.7-0.7-1.7,0-2.4l3-3L23.8,31.7z"/>
</g>
</svg>
