<?xml version="1.0" encoding="utf-8"?>
<!-- Generator: Adobe Illustrator 19.1.0, SVG Export Plug-In . SVG Version: 6.00 Build 0)  -->
<svg version="1.0" id="Réteg_1" xmlns="http://www.w3.org/2000/svg" xmlns:xlink="http://www.w3.org/1999/xlink" x="0px" y="0px"
	 viewBox="-166 388.9 64 64" style="enable-background:new -166 388.9 64 64;" xml:space="preserve">
<style type="text/css">
	.st0{fill:#FF9900;}
</style>
<g>
	<g id="Layer_1_110_">
		<g>
			<path class="st0" d="M-140.7,412.4l-3.2-3c0.4-0.7,0.6-1.5,0.6-2.3c0-2.6-2.1-4.8-4.8-4.8c-2.6,0-4.8,2.1-4.8,4.8
				s2.1,4.8,4.8,4.8c0.9,0,1.8-0.3,2.5-0.7l3.2,3C-141.9,413.5-141.3,412.9-140.7,412.4z"/>
			<path class="st0" d="M-127.1,412l4.3-7.2c0.4,0.1,0.9,0.2,1.3,0.2c2.6,0,4.8-2.1,4.8-4.8c0-2.6-2.1-4.8-4.8-4.8
				c-2.6,0-4.8,2.1-4.8,4.8c0,1.3,0.5,2.5,1.4,3.4l-4.3,7.2C-128.4,411.1-127.7,411.5-127.1,412z"/>
			<path class="st0" d="M-112.3,418c-2.1,0-3.8,1.3-4.5,3.1l-6-0.6c0,0,0,0.1,0,0.1c0,0.8-0.1,1.5-0.2,2.3l6,0.6
				c0.4,2.3,2.3,4,4.7,4c2.6,0,4.8-2.1,4.8-4.8C-107.5,420.2-109.6,418-112.3,418z"/>
			<path class="st0" d="M-128.7,436.8l-1.3-5.8c-0.8,0.3-1.5,0.4-2.3,0.5l1.3,5.8c-1.5,0.8-2.6,2.4-2.6,4.2c0,2.6,2.1,4.8,4.8,4.8
				c2.6,0,4.8-2.1,4.8-4.8C-124.1,439-126.1,436.9-128.7,436.8z"/>
			<path class="st0" d="M-144.3,423l-7.4,2.5c-0.9-1.3-2.3-2.2-4-2.2c-2.6,0-4.8,2.1-4.8,4.8c0,2.6,2.1,4.8,4.8,4.8
				c2.6,0,4.8-2.1,4.8-4.8c0-0.1,0-0.2,0-0.3l7.4-2.5C-143.9,424.6-144.1,423.8-144.3,423z"/>
			<circle class="st0" cx="-133.6" cy="420.7" r="8.2"/>
		</g>
	</g>
</g>
</svg>
