<?xml version="1.0" encoding="utf-8"?>
<!-- Generator: Adobe Illustrator 19.1.0, SVG Export Plug-In . SVG Version: 6.00 Build 0)  -->
<svg version="1.0" id="Réteg_1" xmlns="http://www.w3.org/2000/svg" xmlns:xlink="http://www.w3.org/1999/xlink" x="0px" y="0px"
	 viewBox="0 0 60 60" style="enable-background:new 0 0 60 60;" xml:space="preserve">
<style type="text/css">
	.st0{fill:#394200;}
</style>
<g>
	<polygon class="st0" points="47.1,33.7 50.8,33.7 51.7,26.3 48,26.3 	"/>
	<polygon class="st0" points="13,26.3 9.3,26.3 9,28.2 12.7,28.2 	"/>
	<path class="st0" d="M22.6,22.6H30l-1.8,14.8h-3.7l1.4-11.1h-3.7l-1.4,11.1h-3.7l2.5-20.3h37.5C52.2,7,41.9,0,30,0
		C13.4,0,0,13.4,0,30c0,3.2,0.5,6.3,1.5,9.2h48.7l0.2-1.8H43l1.8-14.8h11.1l-2.5,20.3H2.9C7.8,53,18.1,60,30,60
		c16.6,0,30-13.4,30-30c0-3.2-0.5-6.3-1.5-9.2H22.9L22.6,22.6z M16,31.8H8.6l-0.2,1.8h7.4l-0.5,3.7H4.2L6,22.6h11.1L16,31.8z
		 M31.9,22.6H43l-1.8,14.8H30.1L31.9,22.6z"/>
	<polygon class="st0" points="34.2,33.7 37.9,33.7 38.8,26.3 35.1,26.3 	"/>
</g>
</svg>
