<?xml version="1.0" encoding="utf-8"?>
<!-- Generator: Adobe Illustrator 19.1.0, SVG Export Plug-In . SVG Version: 6.00 Build 0)  -->
<svg version="1.1" id="Réteg_1" xmlns="http://www.w3.org/2000/svg" xmlns:xlink="http://www.w3.org/1999/xlink" x="0px" y="0px"
	 viewBox="0 0 64 64" style="enable-background:new 0 0 64 64;" xml:space="preserve">
<style type="text/css">
	.st0{fill:#FF9900;}
</style>
<g>
	<path class="st0" d="M53.4,8.6h-1.8V52c0,2.9-2.3,5.2-5.2,5.2H28.5H14.3v1.6c0,1.8,1.5,3.3,3.3,3.3h17.9h17.9
		c1.8,0,3.3-1.5,3.3-3.3V12C56.7,10.1,55.3,8.6,53.4,8.6z"/>
	<path class="st0" d="M28.5,55.4h17.9c1.8,0,3.3-1.5,3.3-3.3V8.6V5.1c0-1.8-1.5-3.3-3.3-3.3H28.5h-6v1.1c0,0.1,0,0.2,0,0.4v7.3v1.9
		c0,2.6-2.1,4.7-4.7,4.7H16H8.7c-0.1,0-0.2,0-0.3,0H7.3v35c0,1.8,1.5,3.3,3.3,3.3h3.7H28.5L28.5,55.4z M29.2,44H17.5
		c-0.9,0-1.6-0.7-1.6-1.6c0-0.9,0.7-1.6,1.6-1.6h11.7c0.9,0,1.6,0.7,1.6,1.6C30.8,43.3,30,44,29.2,44z M40.9,36H17.5
		c-0.9,0-1.6-0.7-1.6-1.6c0-0.9,0.7-1.6,1.6-1.6h23.4c0.9,0,1.6,0.7,1.6,1.6C42.4,35.3,41.7,36,40.9,36z M17.5,24.3h23.4
		c0.9,0,1.6,0.7,1.6,1.6c0,0.9-0.7,1.6-1.6,1.6H17.5c-0.9,0-1.6-0.7-1.6-1.6C15.9,25,16.6,24.3,17.5,24.3z"/>
	<path class="st0" d="M8.7,15.2h9.1c0,0,0,0,0,0c1.5,0,2.8-1.3,2.8-2.8c0,0,0,0,0,0V3.2c0-0.8-0.7-1.4-1.4-1.4c-0.3,0-0.7,0.1-1,0.4
		L7.7,12.8C6.8,13.7,7.5,15.2,8.7,15.2z"/>
</g>
</svg>
