<?xml version="1.0" encoding="utf-8"?>
<!-- Generator: Adobe Illustrator 19.1.0, SVG Export Plug-In . SVG Version: 6.00 Build 0)  -->
<svg version="1.1" id="Réteg_1" xmlns="http://www.w3.org/2000/svg" xmlns:xlink="http://www.w3.org/1999/xlink" x="0px" y="0px"
	 viewBox="0 0 64 64" style="enable-background:new 0 0 64 64;" xml:space="preserve">
<style type="text/css">
	.st0{fill:#FF9900;}
</style>
<g>
	<path class="st0" d="M23.8,42.8c-2.9-6-1.4-9.4,0.8-12.6c2.4-3.5,3-7,3-7s1.9,2.4,1.1,6.3c3.3-3.7,3.9-9.6,3.5-11.9
		c7.6,5.3,10.7,16.7,6.4,25.2c23.1-13.2,5.8-32.7,2.8-34.9c1,2.2,1.2,6-0.8,7.7C37.2,2.6,28.7,0,28.7,0c1,6.7-3.6,14.1-8.2,19.6
		c-0.2-2.7-0.3-4.5-1.7-7.1c-0.3,4.9-4.1,8.8-5.1,13.8C12.4,32.8,14.8,37.7,23.8,42.8z"/>
</g>
<path class="st0" d="M55,51l-0.5-0.1l0.5-0.1c3.2-0.9,5-4.3,4.1-7.4s-4.3-5-7.4-4.1l-19.7,5.7l-19.9-5.3c-3.2-0.8-6.5,1.1-7.3,4.3
	C3.9,47,5.8,50.3,9,51.2l0.5,0.1L9,51.5c-3.2,0.9-5,4.3-4.1,7.4s4.3,5,7.4,4.1l19.7-5.7l19.9,5.3c3.2,0.8,6.5-1.1,7.3-4.3
	C60.1,55.1,58.2,51.8,55,51z M41,48.5l-1.8,0.9l-0.5-0.7l1.7-1.1L41,48.5z M24.5,45.8l1.3,0.4c0,0.1,0.1,0.2,0.1,0.4
	c0,0.1,0.1,0.3,0.1,0.4c0.1,0.3,0.1,0.7,0.2,1.1c0.1,0.4,0.1,0.8,0.2,1.2c0.1,0.4,0.1,0.8,0.2,1.1c0.2-0.3,0.4-0.6,0.7-0.9
	c0.2-0.3,0.5-0.6,0.7-0.9c0.2-0.3,0.5-0.6,0.7-0.8s0.4-0.5,0.6-0.6l1.3,0.3c-0.1,0.4-0.1,0.9-0.2,1.4c-0.1,0.5-0.2,1.1-0.3,1.6
	c-0.1,0.6-0.2,1.1-0.3,1.7c-0.1,0.6-0.2,1.1-0.3,1.6L28,53.4c0.1-0.6,0.3-1.3,0.5-2c0.2-0.7,0.3-1.5,0.4-2.2
	c-0.2,0.2-0.4,0.5-0.6,0.7c-0.2,0.3-0.4,0.5-0.6,0.8c-0.2,0.3-0.4,0.5-0.6,0.8c-0.2,0.2-0.4,0.5-0.5,0.6l-1-0.3
	c0-0.2-0.1-0.5-0.1-0.8c0-0.3-0.1-0.6-0.1-1c0-0.3-0.1-0.7-0.1-1c-0.1-0.3-0.1-0.7-0.1-0.9c-0.3,0.7-0.5,1.4-0.7,2.1
	c-0.2,0.7-0.4,1.4-0.6,2l-1.4-0.4c0.2-0.5,0.3-1,0.5-1.5c0.2-0.5,0.4-1.1,0.5-1.6c0.2-0.5,0.4-1.1,0.6-1.6c0,0,0,0,0,0
	C24.2,46.7,24.4,46.2,24.5,45.8z M23,45.4l-0.3,1.2l-2.8-0.7l-0.3,1.2l2.4,0.6l0.1,0l-0.3,1.2l-2-0.5l-0.5-0.1l-0.1,0.3l-0.3,1.2
	l3,0.8l-0.3,1.2l-4.4-1.2l0.4-1.5l1.2-4.7L23,45.4z M8.1,48.3c-0.3-0.1-0.5-0.2-0.7-0.2c-0.2-0.1-0.4-0.2-0.6-0.3
	c-0.2-0.1-0.3-0.2-0.4-0.3c-0.1-0.1-0.2-0.2-0.3-0.2l0.7-1c0.2,0.2,0.4,0.3,0.6,0.5c0.3,0.2,0.6,0.3,1,0.4c0.2,0.1,0.4,0.1,0.5,0.1
	s0.3,0,0.3-0.1c0.1,0,0.2-0.1,0.2-0.2c0.1-0.1,0.1-0.2,0.1-0.2c0.1-0.2,0-0.4-0.2-0.6c-0.2-0.2-0.4-0.4-0.9-0.7
	C8.3,45.3,8.2,45.2,8,45s-0.3-0.3-0.5-0.5c-0.1-0.2-0.2-0.4-0.3-0.6c0-0.2,0-0.5,0-0.8c0.1-0.3,0.2-0.5,0.4-0.7
	c0.2-0.2,0.4-0.4,0.6-0.5s0.5-0.2,0.8-0.2c0.3,0,0.6,0,1,0.1c0.4,0.1,0.8,0.3,1.1,0.4c0.3,0.2,0.5,0.3,0.7,0.5l-0.7,1
	c-0.1-0.1-0.3-0.3-0.5-0.4c-0.2-0.1-0.4-0.2-0.7-0.3C9.5,43,9.3,43,9.1,43c-0.2,0.1-0.3,0.2-0.3,0.4c0,0.1,0,0.2,0,0.3
	c0,0.1,0.1,0.2,0.2,0.3c0.1,0.1,0.2,0.2,0.3,0.3c0.1,0.1,0.2,0.2,0.4,0.3c0.3,0.2,0.5,0.4,0.8,0.6c0.2,0.2,0.4,0.4,0.5,0.6
	s0.2,0.4,0.2,0.6c0,0.2,0,0.5-0.1,0.8c-0.2,0.6-0.5,1-1,1.2C9.5,48.5,8.9,48.5,8.1,48.3z M11.2,49l0.2-0.8c0.2-0.3,0.5-0.5,0.9-0.9
	c0.3-0.3,0.7-0.6,1.1-0.9c0.4-0.3,0.7-0.6,1.1-0.9c0.4-0.3,0.7-0.5,1-0.8L12.7,44l0.3-1.2l4.7,1.2l-0.3,1c-0.2,0.1-0.5,0.3-0.9,0.6
	c-0.3,0.2-0.7,0.5-1.1,0.8c-0.4,0.3-0.8,0.6-1.1,0.9s-0.7,0.6-1,0.9l3.2,0.8l-0.1,0.2l-0.2,0.9l-1.6-0.4L11.2,49z M30.6,54.1
	l1.7-6.2l1.4,0.4l-1.3,5l2.8,0.7l-0.3,1.2L30.6,54.1z M40.1,56.6l-3-0.8l-1.4-0.4l1.7-6.2l4.2,1.1l-0.3,1.2l-2.8-0.7L38.1,52
	l2.5,0.7l-0.3,1.2l-2.5-0.7l-0.4,1.5l2,0.5l1,0.3L40.1,56.6z M45.3,58l-4.2-1.1l0.6-2.4l1-3.8l1.4,0.4l-0.8,3l-0.5,2l2.8,0.7
	L45.3,58z M51.7,54.3l-2.8-0.7l-0.3,1.2l2.5,0.7l-0.3,1.2l-2.5-0.7l-0.4,1.5l3,0.8l-0.3,1.2l-4.4-1.2l1.4-5.4l0.2-0.8l1.3,0.4
	l2.9,0.8L51.7,54.3z M57.6,55.9l-1.9-0.5l-1.3,5L53,60.1l1.3-5l-1.9-0.5l0.3-1.2l5.2,1.4L57.6,55.9z"/>
</svg>
