<?xml version="1.0" encoding="utf-8"?>
<!-- Generator: Adobe Illustrator 19.1.0, SVG Export Plug-In . SVG Version: 6.00 Build 0)  -->
<svg version="1.0" id="Réteg_1" xmlns="http://www.w3.org/2000/svg" xmlns:xlink="http://www.w3.org/1999/xlink" x="0px" y="0px"
	 viewBox="-166 388.9 64 64" style="enable-background:new -166 388.9 64 64;" xml:space="preserve">
<style type="text/css">
	.st0{fill:none;}
	.st1{fill:#FF9900;}
</style>
<g>
	<path class="st0" d="M-111.6,409.7c0.1-2.5-2-4.5-4.4-4.5C-113.6,405.2-111.5,407.3-111.6,409.7z"/>
	<polygon class="st1" points="-136.2,412 -131.8,416.4 -131.8,412 	"/>
	<polygon class="st1" points="-142.9,418.7 -142.9,423 -138.6,423 	"/>
	<polygon class="st1" points="-138.5,423.1 -138.6,423 -142.9,423 -142.9,423.1 	"/>
	<rect x="-129.5" y="412" class="st1" width="4.5" height="4.5"/>
	<polygon class="st1" points="-129.4,418.8 -125,423.2 -125,418.8 	"/>
	<polygon class="st1" points="-125,418.7 -129.5,418.7 -129.4,418.8 -125,418.8 	"/>
	<path class="st1" d="M-134,388.9c-17.7,0-32,14.3-32,32s14.3,32,32,32s32-14.3,32-32S-116.3,388.9-134,388.9z M-116.8,444.8
		l-8.2-8.2h-26.9c-1.2,0-2.4-0.5-3.2-1.4c-0.9-0.8-1.4-2-1.4-3.2v-22.5c0-1.2,0.5-2.2,1.3-3l-2.8-2.8l6.7-6.7l8.3,8.2h27
		c2.4,0,4.5,2,4.4,4.5v22.5v0.1c0,1.2-0.5,2.2-1.3,3l2.9,2.9L-116.8,444.8z"/>
	<path class="st1" d="M-112.9,435.3c0.8-0.8,1.3-1.9,1.3-3v-0.1C-111.6,433.4-112.1,434.5-112.9,435.3L-112.9,435.3z"/>
	<path class="st1" d="M-156.4,409.7c0-1.2,0.5-2.3,1.3-3.1l-0.1-0.1c-0.8,0.8-1.3,1.9-1.3,3V432c0,1.2,0.5,2.4,1.4,3.2
		c-0.8-0.8-1.3-1.9-1.3-3.1V409.7z"/>
	<rect x="-122.7" y="418.7" class="st1" width="4.5" height="4.5"/>
	<rect x="-122.7" y="412" class="st1" width="4.5" height="4.5"/>
	<rect x="-149.7" y="418.7" class="st1" width="4.5" height="4.5"/>
	<polygon class="st1" points="-149.7,412 -149.7,416.3 -145.3,416.3 	"/>
	<polygon class="st1" points="-145.2,416.4 -145.3,416.3 -149.7,416.3 -149.7,416.4 	"/>
	<polygon class="st1" points="-129.6,432 -134,427.7 -142.9,427.7 -142.9,432 	"/>
	<polygon class="st1" points="-142.9,432.1 -129.5,432.1 -129.6,432 -142.9,432 	"/>
</g>
</svg>
