<?xml version="1.0" encoding="utf-8"?>
<!-- Generator: Adobe Illustrator 19.1.0, SVG Export Plug-In . SVG Version: 6.00 Build 0)  -->
<svg version="1.1" id="Réteg_1" xmlns="http://www.w3.org/2000/svg" xmlns:xlink="http://www.w3.org/1999/xlink" x="0px" y="0px"
	 viewBox="10 -10 64 64" style="enable-background:new 10 -10 64 64;" xml:space="preserve">
<style type="text/css">
	.st0{fill:#FF9900;}
</style>
<g>
	<rect x="39.8" y="19.7" class="st0" width="4.5" height="4.5"/>
	<rect x="33.1" y="13.1" class="st0" width="4.5" height="4.5"/>
	<rect x="39.8" y="13.1" class="st0" width="4.5" height="4.5"/>
	<rect x="33.1" y="19.7" class="st0" width="4.5" height="4.5"/>
	<rect x="46.5" y="13.1" class="st0" width="4.5" height="4.5"/>
	<rect x="46.5" y="19.8" class="st0" width="4.5" height="4.5"/>
	<path class="st0" d="M42-10C24.3-10,10,4.3,10,22s14.3,32,32,32s32-14.3,32-32S59.7-10,42-10z M64.4,33.2c0,2.4-2,4.5-4.5,4.5H24.1
		c-2.4,0-4.5-2-4.5-4.5V10.8c0-2.4,2-4.5,4.5-4.5h36c2.4,0,4.5,2,4.4,4.5V33.2z"/>
	<rect x="53.3" y="19.8" class="st0" width="4.5" height="4.5"/>
	<rect x="53.3" y="13.1" class="st0" width="4.5" height="4.5"/>
	<rect x="26.3" y="19.8" class="st0" width="4.5" height="4.5"/>
	<rect x="26.3" y="13.1" class="st0" width="4.5" height="4.5"/>
	<polygon class="st0" points="33.1,33.2 51,33.2 51.1,33.2 51.1,28.8 33.1,28.8 	"/>
</g>
</svg>
