<?xml version="1.0" encoding="utf-8"?>
<!-- Generator: Adobe Illustrator 19.1.0, SVG Export Plug-In . SVG Version: 6.00 Build 0)  -->
<svg version="1.1" id="Réteg_1" xmlns="http://www.w3.org/2000/svg" xmlns:xlink="http://www.w3.org/1999/xlink" x="0px" y="0px"
	 viewBox="-166 388.9 64 64" style="enable-background:new -166 388.9 64 64;" xml:space="preserve">
<style type="text/css">
	.st0{fill:#FF9900;}
</style>
<g>
	<path class="st0" d="M-106.8,420.1h-2.5v-7.6c0-0.6-0.3-1.2-0.8-1.6c-3.8-3.1-7.9-4.6-12.4-4.6c-0.2,0-0.3,0-0.5,0
		c0.1-0.5,0.1-1,0.1-1.5c0-6.8-5.5-12.3-12.3-12.3c-6.8,0-12.3,5.5-12.3,12.3c0,0.5,0,1,0.1,1.5c-4.3,0.1-8.4,1.6-12,4.6
		c-0.5,0.4-0.8,1-0.8,1.6v7.6h-1.3c-2.3,0-4.1,1.9-4.1,4.1v4.1c0,2.3,1.8,4,4.1,4h1.3v14.8c0,0.8,0.5,1.5,1.1,1.8
		c0.3,0.1,0.6,0.2,0.9,0.2c0.4,0,0.9-0.1,1.2-0.4c0,0,3.9-2.8,9.9-2.8c3.5,0,7.1,0.9,10.5,2.8c1.2,0.7,2.7,0.3,3.2,0
		c3.5-1.9,7-2.8,10.5-2.8c5.9,0,9.9,2.8,9.9,2.8c0.4,0.3,0.8,0.4,1.2,0.4c0.3,0,0.6-0.1,0.9-0.2c0.7-0.3,1.1-1,1.1-1.8v-14.8h2.5
		c2.3,0,4.1-1.8,4.1-4v-4.1C-102.7,422-104.5,420.1-106.8,420.1z M-146.6,441.8c-3.8,0-7,0.9-9.1,1.9v-11.3h2.7c2.3,0,4-1.8,4-4
		v-4.1c0-2.3-1.8-4.1-4-4.1h-2.7v-6.6c2.7-2.1,5.8-3.1,9-3.1c3.8,0,7.1,1.5,8.9,2.5c0.2,0.2,0.4,0.4,0.7,0.7v30.1
		C-140.4,442.5-143.5,441.8-146.6,441.8z M-113.3,443.7c-2.2-0.9-5.3-1.9-9.1-1.9c-3.2,0-6.4,0.6-9.4,1.9v-30.4
		c1.5-1,5.1-2.9,9.5-2.9c3.2,0,6.2,1,9,3.1v6.6h-1.6c-2.3,0-4.1,1.9-4.1,4.1v4.1c0,2.3,1.8,4,4.1,4h1.6L-113.3,443.7L-113.3,443.7
		L-113.3,443.7z"/>
</g>
</svg>
