<?xml version="1.0" encoding="utf-8"?>
<!-- Generator: Adobe Illustrator 19.1.0, SVG Export Plug-In . SVG Version: 6.00 Build 0)  -->
<svg version="1.1" id="Réteg_1" xmlns="http://www.w3.org/2000/svg" xmlns:xlink="http://www.w3.org/1999/xlink" x="0px" y="0px"
	 viewBox="-166 388.9 64 64" style="enable-background:new -166 388.9 64 64;" xml:space="preserve">
<style type="text/css">
	.st0{fill:#FF9900;}
</style>
<path class="st0" d="M-134,388.9c-17.7,0-32,14.3-32,32s14.3,32,32,32s32-14.3,32-32S-116.3,388.9-134,388.9z M-131.1,438.3
	c0,0.9-0.6,1.5-1.5,1.5h-2.9c-0.9,0-1.5-0.6-1.5-1.5v-2.9c0-0.9,0.6-1.5,1.5-1.5h2.9c0.9,0,1.5,0.6,1.5,1.5V438.3z M-127.2,425.4
	c-2,1.7-3.5,2.9-3.9,4.5c-0.1,0.7-0.7,1.2-1.5,1.2h-2.9c-0.9,0-1.6-0.7-1.5-1.6c0.6-4.2,3.6-6.5,6.1-8.6c2.6-2,4.1-3.3,4.1-5.8
	c0-4.1-3.2-7.3-7.3-7.3s-7.3,3.2-7.3,7.3c0,0.3,0,0.6,0,0.9c0.1,0.7-0.3,1.5-1,1.6l-2.8,0.9c-0.9,0.3-1.7-0.3-1.9-1.2
	c-0.1-0.7-0.1-1.5-0.1-2.2c0-7.3,5.8-13.1,13.1-13.1c7.3,0,13.1,5.8,13.1,13.1C-120.9,420.5-124.4,423.2-127.2,425.4z"/>
</svg>
