<?xml version="1.0" encoding="utf-8"?>
<!-- Generator: Adobe Illustrator 19.1.0, SVG Export Plug-In . SVG Version: 6.00 Build 0)  -->
<svg version="1.1" id="Réteg_1" xmlns="http://www.w3.org/2000/svg" xmlns:xlink="http://www.w3.org/1999/xlink" x="0px" y="0px"
	 viewBox="10 -10 64 64" style="enable-background:new 10 -10 64 64;" xml:space="preserve">
<style type="text/css">
	.st0{fill:#FF9900;}
</style>
<g>
	<g>
		<path class="st0" d="M69.7,40.6L57.2,28c-1.9,2.9-4.3,5.4-7.3,7.3l12.6,12.6c2,2,5.3,2,7.3,0C71.8,45.8,71.8,42.6,69.7,40.6z"/>
		<path class="st0" d="M57.6,15.1c0-11.3-9.2-20.5-20.5-20.5c-11.3,0-20.5,9.2-20.5,20.5s9.2,20.5,20.5,20.5
			C48.4,35.6,57.6,26.5,57.6,15.1z M37.1,30.5c-8.5,0-15.4-6.9-15.4-15.4S28.6-0.2,37.1-0.2c8.5,0,15.4,6.9,15.4,15.4
			S45.5,30.5,37.1,30.5z"/>
		<path class="st0" d="M25.1,15.1h3.4c0-4.7,3.8-8.5,8.5-8.5V3.2C30.5,3.2,25.1,8.5,25.1,15.1z"/>
	</g>
</g>
</svg>
