<?xml version="1.0" encoding="utf-8"?>
<!-- Generator: Adobe Illustrator 19.1.0, SVG Export Plug-In . SVG Version: 6.00 Build 0)  -->
<svg version="1.1" id="Réteg_1" xmlns="http://www.w3.org/2000/svg" xmlns:xlink="http://www.w3.org/1999/xlink" x="0px" y="0px"
	 viewBox="0 0 64 64" style="enable-background:new 0 0 64 64;" xml:space="preserve">
<style type="text/css">
	.st0{fill:#FF9900;}
</style>
<g>
	<g>
		<path class="st0" d="M4.4,24.8c-1.2,0.5-2.1,1.5-2.2,2.8c-0.2,1.3,0.4,2.5,1.4,3.3L15,39.2L55.3,7.5L19.6,42.6l15.5,11.3
			c1,0.7,2.3,0.9,3.4,0.6c1.2-0.4,2.1-1.2,2.5-2.4L57.8,6.6c0.2-0.5,0-1-0.3-1.3c-0.3-0.3-0.9-0.5-1.3-0.3L4.4,24.8z"/>
		<path class="st0" d="M12.3,42l0.1,0.5l2.2,12.1c0.2,0.9,0.8,1.6,1.6,2c0.8,0.4,1.8,0.3,2.6-0.2c3.1-2,7.1-4.6,7-4.8L12.3,42z"/>
	</g>
</g>
</svg>
