<?xml version="1.0" encoding="utf-8"?>
<!-- Generator: Adobe Illustrator 19.1.0, SVG Export Plug-In . SVG Version: 6.00 Build 0)  -->
<svg version="1.1" id="Réteg_1" xmlns="http://www.w3.org/2000/svg" xmlns:xlink="http://www.w3.org/1999/xlink" x="0px" y="0px"
	 viewBox="10 -10 64 64" style="enable-background:new 10 -10 64 64;" xml:space="preserve">
<style type="text/css">
	.st0{fill:#FF9900;}
</style>
<g>
	<g>
		<g>
			<path class="st0" d="M33.1,9.3L33,9.8c-0.7,2.4-6.3,25.5-6.8,27.4c-0.1,0.3-0.8,2.1-2,2.1c-2.1,0-3-3-3-3.1
				c-0.3-1.2-1.6-1.8-2.7-1.5c-1.2,0.3-1.8,1.6-1.5,2.7c0.7,2.3,3,6.3,7.3,6.3c3.7,0,5.7-3.3,6.3-5.3c0,0,0-0.1,0-0.1
				c2.1-8.6,6.1-25.3,6.7-27.2l0.2-0.5c0.5-1.5,1.8-6.2,3.6-6.2c1.6,0,1.8,2.7,1.8,2.8c0.1,1.2,1.1,2.1,2.4,2c1.2-0.1,2.1-1.2,2-2.4
				c-0.2-2.4-1.7-6.8-6.2-6.8C35.8-0.1,34,6.3,33.1,9.3z"/>
		</g>
	</g>
	<g>
		<g>
			<path class="st0" d="M53.1,9.5L53,10c-0.7,2.4-6.3,25.5-6.8,27.4c-0.1,0.3-0.8,2.1-2,2.1c-2.1,0-3-3-3-3.1
				c-0.3-1.2-1.6-1.8-2.7-1.5c-1.2,0.3-1.8,1.6-1.5,2.7c0.7,2.3,3,6.3,7.3,6.3c3.7,0,5.7-3.3,6.3-5.3c0,0,0-0.1,0-0.1
				c2.1-8.6,6.1-25.3,6.7-27.2l0.2-0.5c0.5-1.5,1.8-6.2,3.6-6.2c1.6,0,1.8,2.7,1.8,2.8c0.1,1.2,1.1,2.1,2.4,2c1.2-0.1,2.1-1.2,2-2.4
				c-0.2-2.4-1.7-6.8-6.2-6.8C55.8,0.1,54,6.5,53.1,9.5z"/>
		</g>
	</g>
</g>
</svg>
