<?xml version="1.0" encoding="utf-8"?>
<!-- Generator: Adobe Illustrator 21.1.0, SVG Export Plug-In . SVG Version: 6.00 Build 0)  -->
<svg version="1.1" id="Réteg_1" xmlns="http://www.w3.org/2000/svg" xmlns:xlink="http://www.w3.org/1999/xlink" x="0px" y="0px"
	 viewBox="0 0 64 64" style="enable-background:new 0 0 64 64;" xml:space="preserve">
<style type="text/css">
	.st0{fill:none;}
	.st1{fill:#FF9900;}
</style>
<g>
	<polygon class="st0" points="30,2.6 30,2.6 37.8,7.1 	"/>
	<polygon class="st0" points="30,27.8 51.9,15.2 51.9,15.2 30,27.8 	"/>
	<path class="st1" d="M32,0C14.3,0,0,14.3,0,32s14.3,32,32,32s32-14.3,32-32S49.7,0,32,0z M30,2.6L30,2.6L30,2.6l7.8,4.5l14.1,8.1
		l0,0l0,0L30,27.8v0l0,0V2.6z M41.5,51.9L32,61.4l0,0c-0.6,0.6-1.4,0.9-2.2,0.9c-0.8,0-1.6-0.3-2.2-0.9c0,0,0,0,0,0l0,0c0,0,0,0,0,0
		c-0.6-0.6-0.9-1.4-0.9-2.2c0-0.8,0.3-1.6,0.9-2.2l0,0l4.3-4.2H14.2c-0.8,0-1.6-0.4-2.2-0.9c-0.5-0.6-0.9-1.3-0.9-2.2
		c0-0.8,0.3-1.6,0.9-2.2c0.6-0.6,1.3-0.9,2.2-0.9h0H32l-4.3-4.3c-0.6-0.6-0.9-1.4-0.9-2.2c0-0.8,0.3-1.6,0.9-2.2c0,0,0,0,0,0l0,0
		l0,0l0,0c0,0,0,0,0,0c0.6-0.6,1.4-0.9,2.2-0.9c0.8,0,1.6,0.3,2.2,0.9l0,0l9.5,9.5l0,0c0.6,0.6,0.9,1.4,0.9,2.2
		C42.4,50.5,42.1,51.3,41.5,51.9L41.5,51.9z M53.9,36.2L53.9,36.2C53.9,36.2,53.9,36.2,53.9,36.2l-7.1,7.9c-0.6,0.7-1.5,1-2.3,1
		c-0.7,0-1.5-0.3-2.1-0.8l0,0c-0.7-0.6-1-1.5-1-2.3c0-0.7,0.3-1.5,0.8-2.1l0,0l3.3-3.7H20.1c-7.1,0-12.9-5.8-12.9-12.9
		c0-7.1,5.8-12.9,12.9-12.9h5.3c1.7,0,3.1,1.4,3.1,3.1c0,1.7-1.4,3.1-3.1,3.1h-5.3c-1.8,0-3.5,0.7-4.7,2c-1.2,1.2-2,2.9-2,4.7
		c0,1.8,0.7,3.5,2,4.7c1.2,1.2,2.9,2,4.7,2h25.4l-3.3-3.7c-0.5-0.6-0.8-1.3-0.8-2.1c0-0.8,0.4-1.7,1-2.3c0,0,0,0,0,0l0,0
		c0,0,0,0,0,0c0.6-0.5,1.3-0.8,2.1-0.8c0.8,0,1.7,0.4,2.3,1l0,0l7.1,7.9c0.8,0.9,1.2,1.9,1.2,3C55,34.3,54.6,35.3,53.9,36.2
		L53.9,36.2z"/>
	<polygon points="27.7,38.1 27.7,38.1 27.7,38.1 	"/>
	<polygon points="27.7,61.4 27.7,61.4 27.7,61.4 	"/>
	<polygon points="53.9,36.2 53.9,36.2 53.9,36.2 	"/>
	<polygon points="42.4,22 42.4,22 42.4,22 	"/>
</g>
</svg>
