<?xml version="1.0" encoding="utf-8"?>
<!-- Generator: Adobe Illustrator 19.1.0, SVG Export Plug-In . SVG Version: 6.00 Build 0)  -->
<svg version="1.1" id="Capa_1" xmlns="http://www.w3.org/2000/svg" xmlns:xlink="http://www.w3.org/1999/xlink" x="0px" y="0px"
	 viewBox="-41 165.3 511.6 511.6" style="enable-background:new -41 165.3 511.6 511.6;" xml:space="preserve">
<style type="text/css">
	.st0{fill:#FF9900;}
</style>
<g>
	<path class="st0" d="M470.6,429.9c0-4.5-1.8-8.5-5.4-11.8L319,284c-3.6-3.3-7.9-5-12.9-5c-4.9,0-9.2,1.7-12.8,5
		c-3.6,3.3-5.4,7.2-5.4,11.8v67.1h-64c-18.7,0-35.4-0.5-50.1-1.6c-14.8-1-29.4-2.9-44-5.6c-14.6-2.7-27.2-6.4-38-11.1
		c-10.8-4.7-20.8-10.8-30.1-18.2c-9.3-7.4-16.9-16.2-22.8-26.5c-5.9-10.2-10.5-22.3-13.8-36.3c-3.3-14-5-29.8-5-47.4
		c0-9.6,0.5-20.3,1.4-32.2c0-1,0.2-3.1,0.7-6.2c0.5-3.1,0.7-5.4,0.7-6.9c0-2.6-0.8-4.8-2.4-6.5c-1.6-1.7-3.9-2.6-6.7-2.6
		c-3,0-5.7,1.5-8,4.5c-1.3,1.6-2.6,3.5-3.7,5.8c-1.1,2.3-2.4,4.9-3.9,7.9c-1.4,3-2.4,5.1-3,6.3C-28.9,235.8-41,275.1-41,304.1
		c0,34.8,5,63.8,15.1,87.2C5,461.8,88.2,497,223.9,497h64V564c0,4.5,1.8,8.5,5.4,11.8c3.6,3.3,7.9,5,12.8,5c4.9,0,9.2-1.7,12.8-5
		l146.2-134.1C468.8,438.4,470.6,434.4,470.6,429.9z"/>
</g>
<g>
	<path class="st0" d="M363.3,630.1l23.9-1.2c0.3,7.6,1.6,12.8,3.9,15.4c3.7,4.3,10.4,6.5,20.3,6.5c8.2,0,14.2-1.5,17.8-4.4
		c3.7-2.9,5.5-6.5,5.5-10.7c0-3.6-1.5-6.7-4.5-9.2c-2.1-1.8-7.9-4.8-17.4-8.9c-9.5-4.1-16.4-7.5-20.7-10.3
		c-4.4-2.8-7.8-6.3-10.3-10.7c-2.5-4.4-3.7-9.5-3.7-15.4c0-10.3,3.7-18.8,11.2-25.6c7.4-6.8,18.2-10.2,32.3-10.2
		c14.3,0,25.4,3.4,33.3,10.1c7.9,6.7,12.2,15.7,12.9,26.8l-24.1,1.1c-0.6-5.8-2.7-10.3-6.3-13.4c-3.6-3.1-8.9-4.7-16-4.7
		c-6.9,0-11.9,1.2-14.9,3.7c-3,2.4-4.5,5.5-4.5,9.3c0,3.5,1.4,6.4,4.1,8.7c2.7,2.3,8.8,5.5,18.1,9.6c14.1,6.1,23,11,26.8,14.8
		c5.7,5.6,8.6,12.7,8.6,21.4c0,10.8-4.3,20-12.8,27.6c-8.5,7.6-20.4,11.4-35.6,11.4c-10.5,0-19.6-1.8-27.3-5.3
		c-7.7-3.5-13.1-8.4-16.3-14.7C364.6,645.5,363.1,638.2,363.3,630.1z"/>
</g>
</svg>
