<?xml version="1.0" encoding="utf-8"?>
<!-- Generator: Adobe Illustrator 19.1.0, SVG Export Plug-In . SVG Version: 6.00 Build 0)  -->
<svg version="1.1" id="Capa_1" xmlns="http://www.w3.org/2000/svg" xmlns:xlink="http://www.w3.org/1999/xlink" x="0px" y="0px"
	 viewBox="-166 389.7 63.2 63.2" style="enable-background:new -166 389.7 63.2 63.2;" xml:space="preserve">
<g>
	<path d="M-110,396.9c-2-2-4.4-3-7.3-3h-34.3c-2.8,0-5.3,1-7.3,3c-2,2-3,4.4-3,7.3v34.3c0,2.8,1,5.3,3,7.3c2,2,4.4,3,7.3,3h34.3
		c2.8,0,5.3-1,7.3-3c2-2,3-4.4,3-7.3v-34.3C-106.9,401.3-107.9,398.9-110,396.9z M-116.1,423.6c0,0.6-0.2,1.2-0.7,1.6
		c-0.5,0.5-1,0.7-1.6,0.7h-11.4v11.4c0,0.6-0.2,1.2-0.7,1.6c-0.5,0.5-1,0.7-1.6,0.7h-4.6c-0.6,0-1.2-0.2-1.6-0.7
		c-0.5-0.5-0.7-1-0.7-1.6v-11.4h-11.4c-0.6,0-1.2-0.2-1.6-0.7c-0.5-0.5-0.7-1-0.7-1.6V419c0-0.6,0.2-1.2,0.7-1.6
		c0.5-0.5,1-0.7,1.6-0.7h11.4v-11.4c0-0.6,0.2-1.2,0.7-1.6c0.5-0.5,1-0.7,1.6-0.7h4.6c0.6,0,1.2,0.2,1.6,0.7c0.5,0.5,0.7,1,0.7,1.6
		v11.4h11.4c0.6,0,1.2,0.2,1.6,0.7c0.5,0.5,0.7,1,0.7,1.6L-116.1,423.6L-116.1,423.6z"/>
</g>
</svg>
