<?xml version="1.0" encoding="utf-8"?>
<!-- Generator: Adobe Illustrator 19.1.0, SVG Export Plug-In . SVG Version: 6.00 Build 0)  -->
<svg version="1.0" id="Réteg_1" xmlns="http://www.w3.org/2000/svg" xmlns:xlink="http://www.w3.org/1999/xlink" x="0px" y="0px"
	 viewBox="-166 388.9 64 64" style="enable-background:new -166 388.9 64 64;" xml:space="preserve">
<style type="text/css">
	.st0{fill:#FF9900;}
</style>
<g>
	<path class="st0" d="M-134,388.9c-17.7,0-32,14.3-32,32s14.3,32,32,32s32-14.3,32-32S-116.3,388.9-134,388.9z M-112.7,437.4
		c0,2.6-2.1,4.7-4.7,4.7h-33.1c-2.6,0-4.7-2.1-4.7-4.7v-33c0-2.6,2.1-4.7,4.7-4.7h33.1c2.6,0,4.7,2.1,4.7,4.7V437.4z"/>
	<path class="st0" d="M-124.6,423.2c-0.9,0-1.9,0.2-3,0.2c-1-0.5-1.4-1-2.1-1.4c-1.4-1.4-2.9-3.6-3.8-6.2c0,0,0,0,0-0.2
		c0.9-3.1,1.7-6.9,0-8.5c-0.5-0.2-1-0.5-1.4-0.5h-0.5c-1,0-1.7,1-1.9,1.9c-1,3.3-0.5,5,0.5,7.8c-0.7,2.1-1.4,4.5-2.6,6.9
		c-0.9,1.7-1.7,3.1-2.4,4.3c-1,0.5-1.7,0.9-2.1,1.1c-2.8,1.7-4.3,3.8-4.5,5c0,0.5,0,0.7,0.2,1.1v0.2l1.1,0.7
		c0.2,0.2,0.5,0.2,0.9,0.2c1.9,0,4.3-2.4,7.1-7.3c0.2-0.2,0.2-0.2,0.5-0.2c2.4-1,5.4-1.4,9.5-1.9c2.4,1.2,5.2,1.7,7.1,1.7
		c1,0,1.7-0.2,2.1-0.5c0.5-0.5,0.7-1.2,1.1-1.2c0-0.5,0-1-0.2-1.4C-119.9,423.6-121.8,423.2-124.6,423.2z M-142.7,429.1
		L-142.7,429.1c-1.5,2.9-2.9,4.3-4.3,4.5c0.2-0.8,1.4-2.4,3-3.8C-143.7,429.6-143.2,429.4-142.7,429.1L-142.7,429.1
		C-142.6,429.1-142.6,429.1-142.7,429.1C-142.6,429.1-142.6,429.1-142.7,429.1z M-135.7,407.7c0.2,0,0.2-0.2,0.2-0.2l0.2,0.2
		c0,0.2,0,0.2,0,0.2c0.2,0.2,0.2,1.2,0,2.4v0.5c0,0.7-0.2,1.2-0.5,2.1c0.1,0,0.2,0,0.2,0s-0.1,0-0.2,0
		C-136.1,410.8-136.1,409.1-135.7,407.7z M-138.8,426.5h-0.2h-0.2c0.5-0.9,1-1.7,1.4-2.6c0.9-2.1,1.9-4,2.4-5.6c1,2.1,2.4,4,3.5,5.4
		c0.2,0.2,0.5,0.5,0.9,0.7C-132.9,424.6-135.8,425.4-138.8,426.5z M-120.8,426.1h-0.2c-0.2,0-0.2,0-0.5,0c-1.2,0-2.8-0.5-4.5-1.1
		c0-0.2,0-0.2,0-0.2c0.2,0,0.2,0,0.5,0c3.4,0,4.3,0.7,4.5,0.9c0,0.2,0.2,0.2,0.2,0.2C-120.8,426.1-120.8,426.1-120.8,426.1z"/>
	<path class="st0" d="M-147,433.6c1.4-0.2,2.8-1.6,4.2-4.5c-0.5,0.2-0.9,0.5-1.1,0.7C-145.6,431.3-146.7,432.9-147,433.6z"/>
	<path class="st0" d="M-135.2,410.8v-0.5c0.2-1.1,0.2-2.1,0-2.4c0,0,0,0,0-0.2l-0.2-0.2c0,0,0,0.2-0.2,0.2c-0.5,1.4-0.5,3,0,5.2
		C-135.4,412-135.2,411.4-135.2,410.8z"/>
	<path class="st0" d="M-121,425.6c-0.2-0.2-1.1-0.9-4.5-0.9c-0.2,0-0.2,0-0.5,0c0,0,0,0,0,0.2c1.7,0.7,3.3,1.1,4.5,1.1
		c0.2,0,0.2,0,0.5,0h0.2c0,0,0,0,0-0.2C-120.8,425.9-121,425.9-121,425.6z"/>
</g>
</svg>
