<?xml version="1.0" encoding="utf-8"?>
<!-- Generator: Adobe Illustrator 19.1.0, SVG Export Plug-In . SVG Version: 6.00 Build 0)  -->
<svg version="1.1" id="Réteg_1" xmlns="http://www.w3.org/2000/svg" xmlns:xlink="http://www.w3.org/1999/xlink" x="0px" y="0px"
	 viewBox="-265 388.9 64 64" style="enable-background:new -265 388.9 64 64;" xml:space="preserve">
<style type="text/css">
	.st0{fill:#FF9900;}
</style>
<g>
	<g>
		<path d="M-259.8,442.7C-259.8,442.7-259.8,442.7-259.8,442.7C-259.8,442.7-259.8,442.7-259.8,442.7L-259.8,442.7z"/>
		<path class="st0" d="M-211.6,435.6C-211.6,435.6-211.6,435.6-211.6,435.6C-211.6,435.6-211.6,435.6-211.6,435.6
			c0.6-1.1,1-2.4,1-3.7c0-4.1-3.3-7.4-7.4-7.4l0,0c0.7-1.7,0.7-3.2,0.7-3.2c0-10.2-7-12.2-10.1-12.5c-0.5-0.1-0.9,0.5-0.6,0.9
			c0.3,0.5,0.5,1.3,0.2,2.2c-0.6,2.3-3.1,2-4.3,2h-8.8c-4.1,0-7.4,3.3-7.4,7.4v0c0,1.1,0.3,2.2,0.7,3.2h-0.2c-4.1,0-7.5,3.3-7.5,7.4
			l0,0c0,1.4,0.4,2.6,1,3.7c0,0,0,0,0,0c0,0,0,0,0,0c-3.1,0.9-5.4,3.8-5.4,7.2c0,4.1,3.4,7.4,7.5,7.4h38.6c4.1,0,7.4-3.3,7.4-7.4
			C-206.2,439.3-208.5,436.5-211.6,435.6z"/>
		<path class="st0" d="M-240.9,411c0.7-0.2,1.3-0.5,1.9-0.9c2.3-1.8,3-5.1,2.1-7.8c-0.8-2.3-2.3-4.1-3.3-6.3
			c-0.2-0.4-0.3-0.8-0.4-1.1c-0.3-0.9-0.3-2-0.2-3v0c0-0.1-0.1-0.2-0.3-0.2l0,0c-2.1,0.7-3.3,2.9-3.5,5c-0.1,2,0.5,4,1.5,5.7
			c0.9,1.7,1.9,3.3,2.1,5.3c0.1,0.9-0.1,2.5-0.2,3.1C-241.2,410.9-241,411-240.9,411z"/>
		<path class="st0" d="M-253.5,418.4c0.7-0.2,1.3-0.5,1.9-0.9c2.3-1.8,3-5.1,2.1-7.8c-0.8-2.3-2.3-4.1-3.3-6.3
			c-0.2-0.4-0.3-0.8-0.4-1.1c-0.3-0.9-0.3-2-0.2-3v0c0-0.1-0.1-0.2-0.3-0.2l0,0c-2.1,0.7-3.3,2.9-3.5,5c-0.1,2,0.5,4,1.5,5.7
			c0.9,1.7,1.9,3.3,2.1,5.3c0.1,0.9-0.1,2.5-0.2,3.1C-253.8,418.3-253.6,418.4-253.5,418.4z"/>
	</g>
</g>
</svg>
