<?xml version="1.0" encoding="utf-8"?>
<!-- Generator: Adobe Illustrator 19.1.0, SVG Export Plug-In . SVG Version: 6.00 Build 0)  -->
<svg version="1.1" id="Capa_1" xmlns="http://www.w3.org/2000/svg" xmlns:xlink="http://www.w3.org/1999/xlink" x="0px" y="0px"
	 viewBox="-265 389.6 63.2 63.2" style="enable-background:new -265 389.6 63.2 63.2;" xml:space="preserve">
<style type="text/css">
	.st0{fill:#FF9900;}
</style>
<path id="XMLID_217_" class="st0" d="M-203,390.9c-1.7-1.7-4.4-1.6-6.2,0.2c-0.8,0.8-1.3,1.9-1.3,2.9l-1.7-1.7c-0.4-0.4-1-0.4-1.4,0
	s-0.4,1,0,1.4l1.8,1.8c0.1,0.1,0.3,0.2,0.5,0.2l-1.7,1.4c0-0.1-0.1-0.2-0.2-0.3l-1.8-1.8c-0.4-0.4-1-0.4-1.4,0c-0.4,0.4-0.4,1,0,1.4
	l1.8,1.8c0,0,0.1,0.1,0.1,0.1l-11.8,9.9c-10-6.6-17.6,3.4-17.6,3.4s-1.2,0.5-2.9,0.7c-1.5,2.3,3,2.1,1.8,4.8
	c-2.6,5.9-8.1,3.6-9.9,2.7c-0.4-0.2-0.8-0.2-1.2-0.1l-1,0.3c-0.1,0-0.2,0.2-0.2,0.3l0.3,1.4c0,0-7.2,1.9-7.8,7.8
	c-0.5,5,1.4,11.7,6.4,16.7c5.1,5.1,11.7,6.9,16.7,6.4c6-0.6,7.8-7.8,7.8-7.8l1.4,0.3c0.1,0,0.2,0,0.3-0.2l0.3-1
	c0.1-0.4,0.1-0.9-0.1-1.2c-0.9-1.8-3.1-7.3,2.7-9.9c2.7-1.2,2.6,3.3,4.9,1.8c0.2-1.7,0.7-2.9,0.7-2.9s10-7.6,3.4-17.6l9.9-11.8
	c0,0,0,0,0,0l1.8,1.8c0.2,0.2,0.5,0.3,0.7,0.3s0.5-0.1,0.7-0.3c0.4-0.4,0.4-1,0-1.4l-1.8-1.8c0,0-0.1-0.1-0.2-0.1l1.4-1.6
	c0,0.1,0.1,0.2,0.2,0.3l1.8,1.8c0.2,0.2,0.5,0.3,0.7,0.3c0.3,0,0.5-0.1,0.7-0.3c0.4-0.4,0.4-1,0-1.4l-1.5-1.5
	c1.1-0.1,2.1-0.5,2.9-1.3C-201.4,395.3-201.3,392.5-203,390.9z M-247.1,440.5l-1.7,1.7c-1.3,1.3-3.5,1.3-4.8,0l-0.8-0.8
	c-1.3-1.3-1.3-3.5,0-4.8l1.7-1.7c0.8-0.8,2.2-0.8,3,0l2.6,2.6C-246.3,438.3-246.3,439.6-247.1,440.5z"/>
</svg>
