<?xml version="1.0" encoding="utf-8"?>
<!-- Generator: Adobe Illustrator 21.1.0, SVG Export Plug-In . SVG Version: 6.00 Build 0)  -->
<svg version="1.1" id="Réteg_1" xmlns="http://www.w3.org/2000/svg" xmlns:xlink="http://www.w3.org/1999/xlink" x="0px" y="0px"
	 viewBox="0 0 64 64" style="enable-background:new 0 0 64 64;" xml:space="preserve">
<style type="text/css">
	.st0{fill:#FF9900;}
</style>
<g>
	<path class="st0" d="M32,0C14.3,0,0,14.3,0,32s14.3,32,32,32s32-14.3,32-32S49.7,0,32,0z M32,54.8c-7.7,0-14.4-3.8-18.6-9.6
		l-4.2,3.9V34.8h0.2h5.8h9.6l-7,6.5c3,4.7,8.3,7.8,14.3,7.8c8.5,0,15.5-6.2,16.9-14.2h5.8C53.2,46.1,43.6,54.8,32,54.8z M54.6,29.2
		h-5.8h-2.6h-5.7l6-6c-3-4.9-8.4-8.2-14.6-8.2c-8.5,0-15.5,6.2-16.9,14.2H9.4C10.8,17.9,20.4,9.2,32,9.2c7.7,0,14.6,3.9,18.7,9.8
		l4.1-4.1v14.2H54.6z"/>
</g>
</svg>
