<?xml version="1.0" encoding="utf-8"?>
<!-- Generator: Adobe Illustrator 19.1.0, SVG Export Plug-In . SVG Version: 6.00 Build 0)  -->
<svg version="1.1" id="Réteg_1" xmlns="http://www.w3.org/2000/svg" xmlns:xlink="http://www.w3.org/1999/xlink" x="0px" y="0px"
	 viewBox="10 -10 64 64" style="enable-background:new 10 -10 64 64;" xml:space="preserve">
<style type="text/css">
	.st0{fill:#FF9900;}
</style>
<g>
	<g>
		<g id="group-3svg">
			<path id="path-1_21_" class="st0" d="M56.6,13.6c0,2-1.6,3.7-3.7,3.7c-2,0-3.7-1.7-3.7-3.7s1.7-3.7,3.7-3.7
				C54.9,9.9,56.6,11.6,56.6,13.6z"/>
			<path id="path-2_21_" class="st0" d="M35.4,13.6c0,2-1.7,3.7-3.7,3.7S28,15.6,28,13.6s1.7-3.7,3.7-3.7S35.4,11.6,35.4,13.6z"/>
			<path id="path-3_21_" class="st0" d="M29.8,41.2c-0.8,0-1.5-0.7-1.5-1.5c0-6.6,5.3-11.9,11.8-11.9h5.1c6.5,0,11.8,5.3,11.8,11.8
				c0,0.8-0.7,1.5-1.5,1.5c-0.8,0-1.5-0.7-1.5-1.5c0-4.8-3.9-8.8-8.7-8.8H40c-4.8,0-8.7,4-8.7,8.9C31.3,40.5,30.6,41.2,29.8,41.2z"
				/>
			<path id="path-4_21_" class="st0" d="M42.3,54c-17.6,0-32-14.4-32-32c0-17.6,14.4-32,32-32c17.6,0,32,14.4,32,32
				C74.3,39.6,60,54,42.3,54z M42.3-7c-16,0-29,13-29,29c0,16,13,29,29,29c16,0,29-13,29-29C71.3,6,58.3-7,42.3-7z"/>
		</g>
	</g>
</g>
</svg>
