<?xml version="1.0" encoding="utf-8"?>
<!-- Generator: Adobe Illustrator 19.1.0, SVG Export Plug-In . SVG Version: 6.00 Build 0)  -->
<svg version="1.1" id="Réteg_1" xmlns="http://www.w3.org/2000/svg" xmlns:xlink="http://www.w3.org/1999/xlink" x="0px" y="0px"
	 viewBox="-166 388.9 64 64" style="enable-background:new -166 388.9 64 64;" xml:space="preserve">
<style type="text/css">
	.st0{fill:#FF9900;}
</style>
<g>
	<path class="st0" d="M-134,388.9c-17.7,0-32,14.3-32,32s14.3,32,32,32s32-14.3,32-32S-116.3,388.9-134,388.9z M-117,436.8
		c0,0.1-0.1,0.1-0.1,0.1c-0.4,0-3.2-3.2-3.3-3.2c-0.1-0.2-0.2-0.2-0.3-0.3c0,0.3,0.2,1.3,1.1,3.3c0.7,1.6,1.7,4.9,1.2,5.6
		c-0.1,0.1-0.2,0.2-0.3,0.2c-0.2,0-0.6-0.2-1.5-1.6c-1.2-1.8-3-4.6-3.4-4.6c0,0-0.1,0.1,0,1c0,0.3,0,0.4-0.1,0.5
		c0,0.1-0.1,0.1-0.2,0.1c-0.3,0-0.9-0.6-2.9-2.8l-0.3-0.3l0,0c0,0.1-0.1,0.1-0.2,0.1c-0.4,0.1-1.2-0.1-2.3-0.6c0,1,0,2.2,0,3.5
		c0.1,0.2,0.2,0.3,0.2,0.6c0,0.2-0.1,0.4-0.1,0.5c0,3.6,0,7.5,0,8.8c0.1,0.1,0.5,0.3,0.6,0.4c0.3,0.1,0.4,0.2,0.4,0.4
		c0,0.5-0.8,0.6-2.3,0.6h-0.2c-0.3,0-0.9,0.1-1.5,0.1c-0.7,0.1-1.4,0.1-1.7,0.1c-0.1,0-0.3,0-0.4-0.2l0,0c-0.2,0-0.5,0-0.7,0.1
		c-0.7,0.1-1.4,0.1-1.7,0.1c-0.1,0-0.3,0-0.4-0.2c-0.1-0.3,0.3-0.5,0.8-0.6c-0.9-0.2-1.1-0.3-1.1-0.5c0-0.3,0.4-0.4,0.8-0.4
		c0.2,0,0.6-0.1,0.6-0.1s0-0.1-0.2-0.3c-0.1-0.1-0.1-0.2-0.1-0.3c0-0.1,0.1-0.1,0.3-0.1c0.3,0,0.9,0.2,1.8,0.4
		c0.2,0.1,0.5,0.1,0.7,0.2c0.2-0.8,0.2-4.3,0.1-8.2c-0.2-0.2-0.3-0.4-0.3-0.8c0-0.3,0.1-0.5,0.3-0.7c-0.1-2-0.1-4.1-0.2-5.9
		c-1.4-0.9-2.5-1.8-3.2-2.6c-0.5-0.5-0.9-1.1-1.3-1.6c-0.6-0.8-1.2-1.5-1.5-1.5c0,0-0.2,0-0.3,0.3c0,0.1-0.1,0.2-0.3,0.2
		s-0.4-0.3-0.5-0.6c-0.1-0.2-0.3-0.6-0.4-0.6c0,0.1,0,0.3,0.1,0.4c0.1,0.2,0.1,0.4,0,0.6c-0.1,0.1-0.2,0.1-0.4,0s-0.3-0.3-0.5-0.7
		c-0.1-0.2-0.2-0.5-0.3-0.6c0,0.1-0.1,0.2-0.1,0.3c-0.1,0.4-0.2,0.8-0.4,0.8c-0.1,0-0.2-0.1-0.3-0.2c-0.5-0.6-1.2-6-1-9.1
		c0.4-5,1.1-7.1,1.5-8.5l0.1-0.2c0.6-1.8,2.3-7.2,1.9-7.8c0,0,0,0-0.1,0c-1.3,0.4-1.6,0.6-3.6,2.2c-3.6,3-4.6,3.6-5,3.6
		c-0.2,0-0.3-0.1-0.3-0.3c0-0.2,0.2-0.3,0.7-0.8c0.8-0.8,2.3-2.2,3.2-4c0.2-0.5,0.5-0.9,0.7-1.4c1.6-3.3,2.9-6,4.8-6.3
		c1.4-0.3,2.6,0.1,3.3,1c0.8,1,0.9,2.7,0.3,4.6c-0.2,0.8-0.6,1.6-1,2.4c-0.8,1.7-1.6,3.5-1.6,5.6c0,0,0.1,3.5,2.8,4.4
		c0.6,0.2,1.3,0.3,2.1,0.4c2,0.3,4.5,0.6,6.8,3.2c3.3,3.6,6.1,10.7,7.5,14c1.7,4.1,2.7,6.6,3.2,7.5
		C-117,436.6-116.9,436.7-117,436.8z"/>
	<path class="st0" d="M-131.1,438.4c0-0.3,0.1-0.5,0.3-0.7c0-1.4-0.1-2.8-0.1-4.1l-0.4-0.2c-0.2-0.1-0.4-0.2-0.6-0.4
		c-0.1-0.1-0.2-0.1-0.3-0.2l0,0c0,1,0,2.9,0,5c0.1,0.2,0.2,0.3,0.2,0.6c0,0.2-0.1,0.4-0.1,0.5c0,3.1,0,6.4,0,8.1
		c0.2,0.1,0.4,0.1,0.7,0.2c0.2,0.1,0.5,0.1,0.7,0.2c0.2-0.8,0.2-4.3,0.1-8.2C-131,439-131.1,438.7-131.1,438.4z"/>
</g>
</svg>
