<?xml version="1.0" encoding="utf-8"?>
<!-- Generator: Adobe Illustrator 19.1.0, SVG Export Plug-In . SVG Version: 6.00 Build 0)  -->
<svg version="1.1" id="Capa_1" xmlns="http://www.w3.org/2000/svg" xmlns:xlink="http://www.w3.org/1999/xlink" x="0px" y="0px"
	 viewBox="-166 389.7 63.2 63.2" style="enable-background:new -166 389.7 63.2 63.2;" xml:space="preserve">
<g>
	<g>
		<g>
			<polygon points="-130.8,394.1 -130.8,390.5 -138,390.5 -138,394.1 -144.2,394.1 -144.2,401.4 -124.7,401.4 -124.7,394.1 			"/>
		</g>
	</g>
	<g>
		<g>
			<path d="M-121.1,397.8v7.2h-26.8v-7.2h-7.6V452h42v-54.3H-121.1z M-146.4,427.2h12v3.6h-12V427.2z M-136,445.5l-5.2-5.1l2.5-2.6
				l2.6,2.6l5.9-5.9l2.6,2.5L-136,445.5z M-122.4,423.6h-24V420h24V423.6z M-122.4,416.4h-24v-3.6h24V416.4z"/>
		</g>
	</g>
</g>
</svg>
