<?xml version="1.0" encoding="utf-8"?>
<!-- Generator: Adobe Illustrator 19.1.0, SVG Export Plug-In . SVG Version: 6.00 Build 0)  -->
<svg version="1.1" id="Réteg_1" xmlns="http://www.w3.org/2000/svg" xmlns:xlink="http://www.w3.org/1999/xlink" x="0px" y="0px"
	 viewBox="10 -10 64 64" style="enable-background:new 10 -10 64 64;" xml:space="preserve">
<style type="text/css">
	.st0{fill:#FF9900;}
</style>
<g>
	<path class="st0" d="M42-10C24.3-10,10,4.3,10,22s14.3,32,32,32s32-14.3,32-32S59.7-10,42-10z M64,22c-0.6,0.1-5.1,0.6-10.4,1.3
		l-1.7,0.2c-1.2,0.1-2.3,0.2-2.9,0.3c0.1,0.1,0.1,0.1,0.1,0.1c0.1,0,1.5,1.9,1,3.9c-0.2,1-1,1.8-2,2.3c0.2,0.6,0.6,1.9,0.2,3.1
		c-0.4,1-1.2,1.7-2.4,2.2c-0.1,0.7-0.6,2.6-1.9,3.7c-0.8,0.7-1.8,1-3,1c-0.2,0-0.4,0-0.6,0c-0.2,0-1.5,0.2-3.5,0.2
		c-3.2,0-7.7-0.4-11.5-2.3l-2.4-0.7h-3.4H18v-1V21.4h1.5l3.6-0.1c1.2-0.7,2.3-1.2,3.4-1.8h0.1c1-0.5,2-1,3.1-1.7
		c0.3-0.6,1.5-3,3.8-5.5c1.8-2.7,1.7-4.7,1.6-5.8c0-0.3,0-0.6,0-0.9c0.1-0.9,0.4-1.5,1-1.8c0.6-0.3,1.5-0.2,2.3,0.2
		c2.6,1.5,2.5,3.9,2,6.2l-0.1,0.3c-0.2,1.1-0.7,3.2-0.2,4.3c1.6,2.3,3.7,2.4,6,2.4c0.2,0,0.6,0,0.8,0h0.2c0.2,0,0.5,0,1,0
		c0.8,0,1.9,0,3.5,0c2.7-0.1,4.7-0.1,6.3-0.1c5.4,0,6.6,0.2,7,0.6c0.8,0.5,1.2,1.3,1.1,2.3C65.8,21,65.1,21.7,64,22z"/>
</g>
</svg>
