<?xml version="1.0" encoding="utf-8"?>
<!-- Generator: Adobe Illustrator 19.1.0, SVG Export Plug-In . SVG Version: 6.00 Build 0)  -->
<svg version="1.1" id="Réteg_1" xmlns="http://www.w3.org/2000/svg" xmlns:xlink="http://www.w3.org/1999/xlink" x="0px" y="0px"
	 viewBox="0 0 64 64" style="enable-background:new 0 0 64 64;" xml:space="preserve">
<style type="text/css">
	.st0{fill:#FF9900;}
</style>
<g>
	<path class="st0" d="M52.4,46c0.6-1.1,0.9-2.3,0.9-3.6c0-3.9-3.1-7.1-7-7.1c0.7-1.6,0.7-3.1,0.7-3.1c0-9.8-6.6-11.6-9.7-11.9
		c-0.5-0.1-0.8,0.5-0.6,0.9c0.3,0.5,0.5,1.2,0.2,2.1c-0.6,2.2-3,1.9-4.1,1.9h-8.4c-3.9,0-7.1,3.2-7.1,7.1v0c0,1.1,0.2,2.1,0.7,3
		h-0.2c-3.9,0-7.1,3.2-7.1,7.1c0,1.3,0.4,2.5,1,3.6c0,0,0,0,0,0c0,0,0,0,0,0c-3,0.9-5.2,3.6-5.2,6.8c0,3.9,3.2,7.1,7.1,7.1h36.9
		c3.9,0,7.1-3.2,7.1-7.1C57.5,49.6,55.4,46.9,52.4,46z M12.9,55.7c-0.4,0.3-1,0.4-1.7,0.4c-0.3,0-0.5,0-0.7,0
		c-0.2,0-0.4-0.1-0.5-0.1s-0.3-0.1-0.4-0.1c-0.1,0-0.2-0.1-0.3-0.1l0.4-1c0.2,0.1,0.4,0.2,0.6,0.3c0.3,0.1,0.6,0.1,0.9,0.1
		c0.2,0,0.3,0,0.5,0c0.1,0,0.2-0.1,0.3-0.1c0.1-0.1,0.1-0.1,0.2-0.2c0-0.1,0-0.2,0-0.2c0-0.2-0.1-0.3-0.3-0.5s-0.5-0.3-0.9-0.4
		c-0.2-0.1-0.4-0.1-0.6-0.2c-0.2-0.1-0.4-0.2-0.5-0.3c-0.2-0.1-0.3-0.3-0.4-0.5c-0.1-0.2-0.1-0.4-0.1-0.7c0-0.3,0.1-0.5,0.2-0.7
		c0.1-0.2,0.2-0.4,0.4-0.5c0.2-0.2,0.4-0.3,0.7-0.3c0.3-0.1,0.6-0.1,0.9-0.1c0.4,0,0.7,0,1,0.1c0.3,0.1,0.5,0.2,0.7,0.3l-0.4,1
		c-0.2-0.1-0.3-0.2-0.5-0.2s-0.4-0.1-0.7-0.1c-0.3,0-0.5,0-0.7,0.1c-0.1,0.1-0.2,0.2-0.2,0.4c0,0.1,0,0.2,0.1,0.3
		c0.1,0.1,0.1,0.1,0.2,0.2s0.2,0.1,0.3,0.2c0.1,0,0.3,0.1,0.4,0.1c0.3,0.1,0.6,0.2,0.8,0.3c0.2,0.1,0.4,0.2,0.6,0.4s0.3,0.3,0.3,0.5
		c0.1,0.2,0.1,0.4,0.1,0.7C13.4,55,13.2,55.4,12.9,55.7z M18.6,56h-4.6v-0.8c0.2-0.3,0.3-0.6,0.6-1c0.2-0.3,0.5-0.7,0.7-1.1
		s0.5-0.7,0.7-1c0.3-0.3,0.5-0.6,0.7-0.9h-2.6v-1.1h4.3v0.9c-0.2,0.2-0.4,0.4-0.6,0.7c-0.2,0.3-0.5,0.6-0.8,1
		c-0.3,0.3-0.5,0.7-0.8,1.1c-0.3,0.4-0.5,0.7-0.7,1.1h3V56z M23.7,56h-4.1v-5.8h3.9v1.1h-2.6v1.1h2.3v1.1h-2.3v1.4h2.8V56z M29.7,56
		c0-0.6,0-1.2-0.1-1.8c0-0.7-0.1-1.3-0.1-2c-0.1,0.2-0.2,0.5-0.3,0.8s-0.2,0.6-0.4,0.9c-0.1,0.3-0.2,0.6-0.3,0.8
		c-0.1,0.3-0.2,0.5-0.3,0.7h-0.9c-0.1-0.2-0.2-0.4-0.3-0.7c-0.1-0.3-0.2-0.5-0.3-0.8s-0.2-0.6-0.4-0.9c-0.1-0.3-0.2-0.5-0.3-0.8
		c-0.1,0.7-0.1,1.3-0.1,2c0,0.7-0.1,1.3-0.1,1.8h-1.3c0-0.5,0-0.9,0.1-1.5s0.1-1,0.1-1.6s0.1-1,0.1-1.5s0.1-0.9,0.2-1.3h1.2
		c0.1,0.2,0.2,0.4,0.3,0.7c0.1,0.3,0.3,0.6,0.4,0.9c0.1,0.3,0.3,0.6,0.4,1c0.1,0.3,0.3,0.6,0.4,0.9c0.1-0.3,0.3-0.6,0.4-0.9
		c0.1-0.3,0.3-0.7,0.4-1c0.1-0.3,0.3-0.6,0.4-0.9c0.1-0.3,0.2-0.5,0.3-0.7h1.2c0.1,0.4,0.1,0.8,0.2,1.3s0.1,1,0.1,1.5
		c0,0.5,0.1,1,0.1,1.6c0,0.5,0.1,1,0.1,1.5H29.7z M36,56h-3.9v-5.8h1.3v4.7H36V56z M39.1,48l0.8,0.7l-1.4,1.2l-0.6-0.5L39.1,48z
		 M41,56h-4.1v-5.8h3.9v1.1h-2.6v1.1h2.3v1.1h-2.3v1.4H41V56z M45.8,56h-3.9v-5.8h1.3v4.7h2.6V56z M50.8,56h-4.1v-5.8h3.9v1.1H48
		v1.1h2.3v1.1H48v1.4h2.8V56z M54.3,51.3V56H53v-4.7h-1.8v-1.1H56v1.1H54.3z"/>
	<path class="st0" d="M24.4,19.4c0.1,0.9-0.1,2.4-0.2,2.9c0,0.1,0.1,0.2,0.2,0.2c0.6-0.2,1.3-0.5,1.8-0.9c2.2-1.7,2.9-4.9,2-7.5
		c-0.7-2.2-2.2-3.9-3.1-6c-0.2-0.4-0.3-0.7-0.4-1.1c-0.3-0.9-0.3-1.9-0.2-2.8v0c0-0.1-0.1-0.2-0.2-0.2c-2,0.7-3.2,2.8-3.3,4.8
		c-0.1,1.9,0.5,3.8,1.4,5.5C23.2,16,24.2,17.5,24.4,19.4z"/>
	<path class="st0" d="M12.4,26.5c0.1,0.9-0.1,2.4-0.2,2.9c0,0.1,0.1,0.2,0.2,0.2c0.6-0.2,1.3-0.5,1.8-0.9c2.2-1.7,2.9-4.9,2-7.5
		c-0.7-2.2-2.2-3.9-3.1-6c-0.2-0.4-0.3-0.7-0.4-1.1c-0.3-0.9-0.3-1.9-0.2-2.8v0c0-0.1-0.1-0.2-0.2-0.2c-2,0.7-3.2,2.8-3.3,4.8
		c-0.1,1.9,0.5,3.8,1.4,5.5C11.2,23.1,12.2,24.6,12.4,26.5z"/>
</g>
</svg>
