<?xml version="1.0" encoding="utf-8"?>
<!-- Generator: Adobe Illustrator 19.1.0, SVG Export Plug-In . SVG Version: 6.00 Build 0)  -->
<svg version="1.1" id="Réteg_1" xmlns="http://www.w3.org/2000/svg" xmlns:xlink="http://www.w3.org/1999/xlink" x="0px" y="0px"
	 viewBox="-166 388.9 64 64" style="enable-background:new -166 388.9 64 64;" xml:space="preserve">
<style type="text/css">
	.st0{fill:#FF9900;}
</style>
<g>
	<path class="st0" d="M-134,388.9c-17.7,0-32,14.3-32,32s14.3,32,32,32s32-14.3,32-32S-116.3,388.9-134,388.9z M-113,432.2
		c0.9,0.9,0.9,2.3,0,3.2l-6.5,6.5c-0.4,0.4-1,0.7-1.6,0.7c-0.6,0-1.2-0.2-1.6-0.7l-11.3-11.3l-11.3,11.3c-0.4,0.4-1,0.7-1.6,0.7
		c-0.6,0-1.2-0.2-1.6-0.7l-6.5-6.5c-0.9-0.9-0.9-2.3,0-3.2l11.3-11.3l-11.3-11.3c-0.4-0.4-0.7-1-0.7-1.6c0-0.6,0.2-1.2,0.7-1.6
		l6.5-6.5c0.9-0.9,2.3-0.9,3.2,0l11.3,11.3l11.3-11.3c0.9-0.9,2.3-0.9,3.2,0l6.5,6.5c0.4,0.4,0.7,1,0.7,1.6c0,0.6-0.2,1.2-0.7,1.6
		l-11.3,11.3L-113,432.2z"/>
</g>
</svg>
