<svg version="1" xmlns="http://www.w3.org/2000/svg" width="933.333" height="933.333" viewBox="0 0 700.000000 700.000000"><path d="M317.5 74.5c-15.9 4-88.3 22-160.8 40L25 147.2V228l2.3 1c1.2.5 74.3 18.8 162.5 40.6L350 309.3l160.3-39.7c88.1-21.8 161.2-40.1 162.5-40.6l2.2-1v-80.8l-16.7-4.2c-113.5-28.4-306.9-76-309.1-75.9-1.5 0-15.7 3.4-31.7 7.4zM26 350v40.8l131.8 32.7c72.4 18 145.4 36.1 162.2 40.2l30.5 7.5 161.4-40.1c88.8-22 161.6-40.3 161.8-40.4.2-.2.2-18.6.1-40.8l-.3-40.5L512 350.2l-161.5 40.7L205 354.4c-80-20.1-153-38.5-162.2-40.9L26 309.2V350zM26 512c0 22 .1 40 .3 40 .1 0 72.7 18.2 161.2 40.5C275.9 614.8 349.1 633 350 633c.9 0 74.1-18.2 162.5-40.5C601 570.2 673.6 552 673.7 552c.2 0 .3-18 .3-40 0-25-.4-40-1-40-.5 0-73.4 18-162 40l-161 39.9L189 512c-88.6-22-161.5-40-162-40-.6 0-1 15-1 40z"/></svg>